%TF.GenerationSoftware,KiCad,Pcbnew,6.0.5*%
%TF.CreationDate,2022-10-09T08:24:47+11:00*%
%TF.ProjectId,ameoba,616d656f-6261-42e6-9b69-6361645f7063,rev?*%
%TF.SameCoordinates,Original*%
%TF.FileFunction,Legend,Bot*%
%TF.FilePolarity,Positive*%
%FSLAX46Y46*%
G04 Gerber Fmt 4.6, Leading zero omitted, Abs format (unit mm)*
G04 Created by KiCad (PCBNEW 6.0.5) date 2022-10-09 08:24:47*
%MOMM*%
%LPD*%
G01*
G04 APERTURE LIST*
%ADD10C,0.125000*%
%ADD11C,0.120000*%
%ADD12C,0.100000*%
G04 APERTURE END LIST*
D10*
X32202682Y-30142287D02*
X32202682Y-30047049D01*
X32178873Y-29999430D01*
X32131253Y-29951811D01*
X32036015Y-29928001D01*
X31869349Y-29928001D01*
X31774111Y-29951811D01*
X31726492Y-29999430D01*
X31702682Y-30047049D01*
X31702682Y-30142287D01*
X31726492Y-30189906D01*
X31774111Y-30237525D01*
X31869349Y-30261335D01*
X32036015Y-30261335D01*
X32131253Y-30237525D01*
X32178873Y-30189906D01*
X32202682Y-30142287D01*
X32036015Y-29499430D02*
X31702682Y-29499430D01*
X32036015Y-29713716D02*
X31774111Y-29713716D01*
X31726492Y-29689906D01*
X31702682Y-29642287D01*
X31702682Y-29570859D01*
X31726492Y-29523240D01*
X31750301Y-29499430D01*
X32036015Y-29332763D02*
X32036015Y-29142287D01*
X32202682Y-29261335D02*
X31774111Y-29261335D01*
X31726492Y-29237525D01*
X31702682Y-29189906D01*
X31702682Y-29142287D01*
X19295691Y-29576617D02*
X18795691Y-29576617D01*
X18962358Y-29814712D02*
X19295691Y-29814712D01*
X19009977Y-29814712D02*
X18986167Y-29838522D01*
X18962358Y-29886141D01*
X18962358Y-29957569D01*
X18986167Y-30005188D01*
X19033786Y-30028998D01*
X19295691Y-30028998D01*
%TO.C,D3*%
X23286010Y-23959176D02*
X23286010Y-23459176D01*
X23166962Y-23459176D01*
X23095533Y-23482986D01*
X23047914Y-23530605D01*
X23024105Y-23578224D01*
X23000295Y-23673462D01*
X23000295Y-23744890D01*
X23024105Y-23840128D01*
X23047914Y-23887747D01*
X23095533Y-23935366D01*
X23166962Y-23959176D01*
X23286010Y-23959176D01*
X22905057Y-24006795D02*
X22524105Y-24006795D01*
X22428867Y-23935366D02*
X22357438Y-23959176D01*
X22238391Y-23959176D01*
X22190772Y-23935366D01*
X22166962Y-23911557D01*
X22143152Y-23863938D01*
X22143152Y-23816319D01*
X22166962Y-23768700D01*
X22190772Y-23744890D01*
X22238391Y-23721081D01*
X22333629Y-23697271D01*
X22381248Y-23673462D01*
X22405057Y-23649652D01*
X22428867Y-23602033D01*
X22428867Y-23554414D01*
X22405057Y-23506795D01*
X22381248Y-23482986D01*
X22333629Y-23459176D01*
X22214581Y-23459176D01*
X22143152Y-23482986D01*
X21833629Y-23459176D02*
X21738391Y-23459176D01*
X21690772Y-23482986D01*
X21643152Y-23530605D01*
X21619343Y-23625843D01*
X21619343Y-23792509D01*
X21643152Y-23887747D01*
X21690772Y-23935366D01*
X21738391Y-23959176D01*
X21833629Y-23959176D01*
X21881248Y-23935366D01*
X21928867Y-23887747D01*
X21952676Y-23792509D01*
X21952676Y-23625843D01*
X21928867Y-23530605D01*
X21881248Y-23482986D01*
X21833629Y-23459176D01*
X21405057Y-23959176D02*
X21405057Y-23459176D01*
X21286010Y-23459176D01*
X21214581Y-23482986D01*
X21166962Y-23530605D01*
X21143152Y-23578224D01*
X21119343Y-23673462D01*
X21119343Y-23744890D01*
X21143152Y-23840128D01*
X21166962Y-23887747D01*
X21214581Y-23935366D01*
X21286010Y-23959176D01*
X21405057Y-23959176D01*
X20905057Y-23768700D02*
X20524105Y-23768700D01*
X20024105Y-23959176D02*
X20309819Y-23959176D01*
X20166962Y-23959176D02*
X20166962Y-23459176D01*
X20214581Y-23530605D01*
X20262200Y-23578224D01*
X20309819Y-23602033D01*
X19833629Y-23506795D02*
X19809819Y-23482986D01*
X19762200Y-23459176D01*
X19643152Y-23459176D01*
X19595533Y-23482986D01*
X19571724Y-23506795D01*
X19547914Y-23554414D01*
X19547914Y-23602033D01*
X19571724Y-23673462D01*
X19857438Y-23959176D01*
X19547914Y-23959176D01*
X19381248Y-23459176D02*
X19071724Y-23459176D01*
X19238391Y-23649652D01*
X19166962Y-23649652D01*
X19119343Y-23673462D01*
X19095533Y-23697271D01*
X19071724Y-23744890D01*
X19071724Y-23863938D01*
X19095533Y-23911557D01*
X19119343Y-23935366D01*
X19166962Y-23959176D01*
X19309819Y-23959176D01*
X19357438Y-23935366D01*
X19381248Y-23911557D01*
%TO.C,REF\u002A\u002A*%
X28390629Y-28107123D02*
X28319200Y-28130933D01*
X28200153Y-28130933D01*
X28152534Y-28107123D01*
X28128724Y-28083314D01*
X28104915Y-28035695D01*
X28104915Y-27988076D01*
X28128724Y-27940457D01*
X28152534Y-27916647D01*
X28200153Y-27892838D01*
X28295391Y-27869028D01*
X28343010Y-27845219D01*
X28366819Y-27821409D01*
X28390629Y-27773790D01*
X28390629Y-27726171D01*
X28366819Y-27678552D01*
X28343010Y-27654743D01*
X28295391Y-27630933D01*
X28176343Y-27630933D01*
X28104915Y-27654743D01*
X27890629Y-28130933D02*
X27890629Y-27630933D01*
X27604915Y-28130933D02*
X27819200Y-27845219D01*
X27604915Y-27630933D02*
X27890629Y-27916647D01*
X27176343Y-27630933D02*
X27271581Y-27630933D01*
X27319200Y-27654743D01*
X27343010Y-27678552D01*
X27390629Y-27749981D01*
X27414439Y-27845219D01*
X27414439Y-28035695D01*
X27390629Y-28083314D01*
X27366819Y-28107123D01*
X27319200Y-28130933D01*
X27223962Y-28130933D01*
X27176343Y-28107123D01*
X27152534Y-28083314D01*
X27128724Y-28035695D01*
X27128724Y-27916647D01*
X27152534Y-27869028D01*
X27176343Y-27845219D01*
X27223962Y-27821409D01*
X27319200Y-27821409D01*
X27366819Y-27845219D01*
X27390629Y-27869028D01*
X27414439Y-27916647D01*
X26843010Y-27845219D02*
X26890629Y-27821409D01*
X26914439Y-27797600D01*
X26938248Y-27749981D01*
X26938248Y-27726171D01*
X26914439Y-27678552D01*
X26890629Y-27654743D01*
X26843010Y-27630933D01*
X26747772Y-27630933D01*
X26700153Y-27654743D01*
X26676343Y-27678552D01*
X26652534Y-27726171D01*
X26652534Y-27749981D01*
X26676343Y-27797600D01*
X26700153Y-27821409D01*
X26747772Y-27845219D01*
X26843010Y-27845219D01*
X26890629Y-27869028D01*
X26914439Y-27892838D01*
X26938248Y-27940457D01*
X26938248Y-28035695D01*
X26914439Y-28083314D01*
X26890629Y-28107123D01*
X26843010Y-28130933D01*
X26747772Y-28130933D01*
X26700153Y-28107123D01*
X26676343Y-28083314D01*
X26652534Y-28035695D01*
X26652534Y-27940457D01*
X26676343Y-27892838D01*
X26700153Y-27869028D01*
X26747772Y-27845219D01*
X26176343Y-28130933D02*
X26462058Y-28130933D01*
X26319200Y-28130933D02*
X26319200Y-27630933D01*
X26366819Y-27702362D01*
X26414439Y-27749981D01*
X26462058Y-27773790D01*
X25985867Y-27678552D02*
X25962058Y-27654743D01*
X25914439Y-27630933D01*
X25795391Y-27630933D01*
X25747772Y-27654743D01*
X25723962Y-27678552D01*
X25700153Y-27726171D01*
X25700153Y-27773790D01*
X25723962Y-27845219D01*
X26009677Y-28130933D01*
X25700153Y-28130933D01*
X25485867Y-27940457D02*
X25104915Y-27940457D01*
X24866819Y-28130933D02*
X24866819Y-27630933D01*
X24700153Y-27988076D01*
X24533486Y-27630933D01*
X24533486Y-28130933D01*
X24295391Y-28130933D02*
X24295391Y-27630933D01*
X24057296Y-28130933D02*
X24057296Y-27630933D01*
X23771581Y-28130933D01*
X23771581Y-27630933D01*
X23533486Y-28130933D02*
X23533486Y-27630933D01*
X23295391Y-27940457D02*
X22914439Y-27940457D01*
X22676343Y-27869028D02*
X22509677Y-27869028D01*
X22438248Y-28130933D02*
X22676343Y-28130933D01*
X22676343Y-27630933D01*
X22438248Y-27630933D01*
X29228780Y-33135173D02*
X29252590Y-33158982D01*
X29324018Y-33182792D01*
X29371637Y-33182792D01*
X29443066Y-33158982D01*
X29490685Y-33111363D01*
X29514495Y-33063744D01*
X29538304Y-32968506D01*
X29538304Y-32897078D01*
X29514495Y-32801840D01*
X29490685Y-32754221D01*
X29443066Y-32706602D01*
X29371637Y-32682792D01*
X29324018Y-32682792D01*
X29252590Y-32706602D01*
X29228780Y-32730411D01*
X29133542Y-33230411D02*
X28752590Y-33230411D01*
X28538304Y-32682792D02*
X28490685Y-32682792D01*
X28443066Y-32706602D01*
X28419256Y-32730411D01*
X28395447Y-32778030D01*
X28371637Y-32873268D01*
X28371637Y-32992316D01*
X28395447Y-33087554D01*
X28419256Y-33135173D01*
X28443066Y-33158982D01*
X28490685Y-33182792D01*
X28538304Y-33182792D01*
X28585923Y-33158982D01*
X28609733Y-33135173D01*
X28633542Y-33087554D01*
X28657352Y-32992316D01*
X28657352Y-32873268D01*
X28633542Y-32778030D01*
X28609733Y-32730411D01*
X28585923Y-32706602D01*
X28538304Y-32682792D01*
X27943066Y-32682792D02*
X28038304Y-32682792D01*
X28085923Y-32706602D01*
X28109733Y-32730411D01*
X28157352Y-32801840D01*
X28181161Y-32897078D01*
X28181161Y-33087554D01*
X28157352Y-33135173D01*
X28133542Y-33158982D01*
X28085923Y-33182792D01*
X27990685Y-33182792D01*
X27943066Y-33158982D01*
X27919256Y-33135173D01*
X27895447Y-33087554D01*
X27895447Y-32968506D01*
X27919256Y-32920887D01*
X27943066Y-32897078D01*
X27990685Y-32873268D01*
X28085923Y-32873268D01*
X28133542Y-32897078D01*
X28157352Y-32920887D01*
X28181161Y-32968506D01*
X27585923Y-32682792D02*
X27538304Y-32682792D01*
X27490685Y-32706602D01*
X27466875Y-32730411D01*
X27443066Y-32778030D01*
X27419256Y-32873268D01*
X27419256Y-32992316D01*
X27443066Y-33087554D01*
X27466875Y-33135173D01*
X27490685Y-33158982D01*
X27538304Y-33182792D01*
X27585923Y-33182792D01*
X27633542Y-33158982D01*
X27657352Y-33135173D01*
X27681161Y-33087554D01*
X27704971Y-32992316D01*
X27704971Y-32873268D01*
X27681161Y-32778030D01*
X27657352Y-32730411D01*
X27633542Y-32706602D01*
X27585923Y-32682792D01*
X27252590Y-32682792D02*
X26943066Y-32682792D01*
X27109733Y-32873268D01*
X27038304Y-32873268D01*
X26990685Y-32897078D01*
X26966875Y-32920887D01*
X26943066Y-32968506D01*
X26943066Y-33087554D01*
X26966875Y-33135173D01*
X26990685Y-33158982D01*
X27038304Y-33182792D01*
X27181161Y-33182792D01*
X27228780Y-33158982D01*
X27252590Y-33135173D01*
X26847828Y-33230411D02*
X26466875Y-33230411D01*
X26252590Y-32682792D02*
X26204971Y-32682792D01*
X26157352Y-32706602D01*
X26133542Y-32730411D01*
X26109733Y-32778030D01*
X26085923Y-32873268D01*
X26085923Y-32992316D01*
X26109733Y-33087554D01*
X26133542Y-33135173D01*
X26157352Y-33158982D01*
X26204971Y-33182792D01*
X26252590Y-33182792D01*
X26300209Y-33158982D01*
X26324018Y-33135173D01*
X26347828Y-33087554D01*
X26371637Y-32992316D01*
X26371637Y-32873268D01*
X26347828Y-32778030D01*
X26324018Y-32730411D01*
X26300209Y-32706602D01*
X26252590Y-32682792D01*
X25871637Y-33135173D02*
X25847828Y-33158982D01*
X25871637Y-33182792D01*
X25895447Y-33158982D01*
X25871637Y-33135173D01*
X25871637Y-33182792D01*
X25371637Y-33182792D02*
X25657352Y-33182792D01*
X25514495Y-33182792D02*
X25514495Y-32682792D01*
X25562114Y-32754221D01*
X25609733Y-32801840D01*
X25657352Y-32825649D01*
X24943066Y-32849459D02*
X24943066Y-33182792D01*
X25157352Y-32849459D02*
X25157352Y-33111363D01*
X25133542Y-33158982D01*
X25085923Y-33182792D01*
X25014495Y-33182792D01*
X24966875Y-33158982D01*
X24943066Y-33135173D01*
X24538304Y-32920887D02*
X24704971Y-32920887D01*
X24704971Y-33182792D02*
X24704971Y-32682792D01*
X24466875Y-32682792D01*
D11*
%TO.C,JP2*%
X21095101Y-29882808D02*
X21095101Y-28257208D01*
X19469501Y-28257208D02*
X19469501Y-27790008D01*
X21095101Y-29882808D02*
X21095101Y-30350008D01*
X19469501Y-30350008D02*
X19469501Y-29882808D01*
X21095101Y-27790008D02*
X21095101Y-28257208D01*
X19469501Y-28257208D02*
X19469501Y-29882808D01*
X19469501Y-30350008D02*
G75*
G03*
X21095101Y-30350008I812800J0D01*
G01*
X21095101Y-27790008D02*
G75*
G03*
X19469501Y-27790008I-812800J0D01*
G01*
%TO.C,D3*%
X23440772Y-23111848D02*
X19540772Y-23111848D01*
X23440772Y-21111848D02*
X19540772Y-21111848D01*
X23440772Y-21111848D02*
X23440772Y-23111848D01*
%TO.C,JP2*%
X31412719Y-27790008D02*
X31412719Y-28257208D01*
X31412719Y-29882808D02*
X31412719Y-30350008D01*
X29787119Y-30350008D02*
X29787119Y-29882808D01*
X31412719Y-29882808D02*
X31412719Y-28257208D01*
X29787119Y-28257208D02*
X29787119Y-29882808D01*
X29787119Y-28257208D02*
X29787119Y-27790008D01*
X29787119Y-30350008D02*
G75*
G03*
X31412719Y-30350008I812800J0D01*
G01*
X31412719Y-27790008D02*
G75*
G03*
X29787119Y-27790008I-812800J0D01*
G01*
%TO.C,REF\u002A\u002A*%
G36*
X23211377Y-28700000D02*
G01*
X22611377Y-28700000D01*
X23211377Y-28100000D01*
X23211377Y-28700000D01*
G37*
D12*
X23211377Y-28700000D02*
X22611377Y-28700000D01*
X23211377Y-28100000D01*
X23211377Y-28700000D01*
D11*
X23053889Y-33454693D02*
X22761355Y-33454693D01*
X23053889Y-32434693D02*
X22761355Y-32434693D01*
%TD*%
M02*
