%TF.GenerationSoftware,KiCad,Pcbnew,6.0.5*%
%TF.CreationDate,2022-10-09T08:24:47+11:00*%
%TF.ProjectId,ameoba,616d656f-6261-42e6-9b69-6361645f7063,rev?*%
%TF.SameCoordinates,Original*%
%TF.FileFunction,Copper,L2,Bot*%
%TF.FilePolarity,Positive*%
%FSLAX46Y46*%
G04 Gerber Fmt 4.6, Leading zero omitted, Abs format (unit mm)*
G04 Created by KiCad (PCBNEW 6.0.5) date 2022-10-09 08:24:47*
%MOMM*%
%LPD*%
G01*
G04 APERTURE LIST*
G04 Aperture macros list*
%AMRoundRect*
0 Rectangle with rounded corners*
0 $1 Rounding radius*
0 $2 $3 $4 $5 $6 $7 $8 $9 X,Y pos of 4 corners*
0 Add a 4 corners polygon primitive as box body*
4,1,4,$2,$3,$4,$5,$6,$7,$8,$9,$2,$3,0*
0 Add four circle primitives for the rounded corners*
1,1,$1+$1,$2,$3*
1,1,$1+$1,$4,$5*
1,1,$1+$1,$6,$7*
1,1,$1+$1,$8,$9*
0 Add four rect primitives between the rounded corners*
20,1,$1+$1,$2,$3,$4,$5,0*
20,1,$1+$1,$4,$5,$6,$7,0*
20,1,$1+$1,$6,$7,$8,$9,0*
20,1,$1+$1,$8,$9,$2,$3,0*%
%AMFreePoly0*
4,1,18,0.500000,-0.500000,0.000000,-0.500000,0.000000,-0.495033,-0.079941,-0.493568,-0.215256,-0.451293,-0.333266,-0.372738,-0.424486,-0.264219,-0.481581,-0.134460,-0.499963,0.006109,-0.478152,0.146186,-0.417904,0.274511,-0.324060,0.380769,-0.204165,0.456417,-0.067858,0.495374,0.000000,0.494959,0.000000,0.500000,0.500000,0.500000,0.500000,-0.500000,0.500000,-0.500000,$1*%
%AMFreePoly1*
4,1,19,0.000000,0.494959,0.073905,0.494508,0.209726,0.453889,0.328688,0.376782,0.421226,0.269385,0.479903,0.140333,0.500000,0.000000,0.499851,-0.012216,0.476331,-0.152017,0.414519,-0.279596,0.319384,-0.384700,0.198574,-0.458877,0.061801,-0.496166,0.000000,-0.495033,0.000000,-0.500000,-0.500000,-0.500000,-0.500000,0.500000,0.000000,0.500000,0.000000,0.494959,0.000000,0.494959,
$1*%
G04 Aperture macros list end*
%TA.AperFunction,ComponentPad*%
%ADD10R,1.000000X1.000000*%
%TD*%
%TA.AperFunction,SMDPad,CuDef*%
%ADD11R,2.600000X2.600000*%
%TD*%
%TA.AperFunction,SMDPad,CuDef*%
%ADD12FreePoly0,270.000000*%
%TD*%
%TA.AperFunction,SMDPad,CuDef*%
%ADD13R,1.000000X1.000000*%
%TD*%
%TA.AperFunction,SMDPad,CuDef*%
%ADD14FreePoly1,270.000000*%
%TD*%
%TA.AperFunction,SMDPad,CuDef*%
%ADD15R,0.900000X1.200000*%
%TD*%
%TA.AperFunction,SMDPad,CuDef*%
%ADD16R,1.492724X0.824104*%
%TD*%
%TA.AperFunction,SMDPad,CuDef*%
%ADD17R,1.492724X0.810988*%
%TD*%
%TA.AperFunction,SMDPad,CuDef*%
%ADD18RoundRect,0.205318X0.539189X0.205318X-0.539189X0.205318X-0.539189X-0.205318X0.539189X-0.205318X0*%
%TD*%
%TA.AperFunction,SMDPad,CuDef*%
%ADD19R,1.489015X0.821296*%
%TD*%
%TA.AperFunction,SMDPad,CuDef*%
%ADD20RoundRect,0.237500X0.300000X0.237500X-0.300000X0.237500X-0.300000X-0.237500X0.300000X-0.237500X0*%
%TD*%
%TA.AperFunction,ViaPad*%
%ADD21C,0.800000*%
%TD*%
%TA.AperFunction,Conductor*%
%ADD22C,0.500000*%
%TD*%
G04 APERTURE END LIST*
D10*
%TO.P,,1,Pin_1*%
%TO.N,DOUT1*%
X34400000Y-28187847D03*
%TD*%
%TO.P,,2,Pin_1*%
%TO.N,column_1*%
X30000000Y-17395497D03*
%TD*%
%TO.P,,1,Pin_1*%
%TO.N,VCC*%
X16900000Y-30000000D03*
%TD*%
%TO.P,,1,Pin_1*%
%TO.N,GND*%
X20000000Y-17400000D03*
%TD*%
%TO.P,,1,Pin_1*%
%TO.N,GND*%
X20000000Y-34000000D03*
%TD*%
%TO.P,,1,Pin_1*%
%TO.N,VCC*%
X34400000Y-30000000D03*
%TD*%
%TO.P,,1,Pin_1*%
%TO.N,GND*%
X16900000Y-26200000D03*
%TD*%
%TO.P,,1,Pin_1*%
%TO.N,GND*%
X34400000Y-26200000D03*
%TD*%
%TO.P,,1,Pin_1*%
%TO.N,column_1*%
X30000000Y-34000000D03*
%TD*%
%TO.P,,1,Pin_1*%
%TO.N,row_2*%
X16900000Y-24000000D03*
%TD*%
%TO.P,,1,Pin_1*%
%TO.N,row_2*%
X34400000Y-24000000D03*
%TD*%
D11*
%TO.P,S18,1*%
%TO.N,row_1*%
X22125000Y-19450000D03*
%TO.P,S18,2*%
%TO.N,column_1*%
X33675000Y-21650000D03*
%TD*%
D10*
%TO.P,,1,Pin_1*%
%TO.N,DIN1*%
X16900000Y-28187847D03*
%TD*%
D12*
%TO.P,JP2,1,A*%
%TO.N,DOUT*%
X20282301Y-27790008D03*
D13*
%TO.P,JP2,2,C*%
%TO.N,DIN1*%
X20282301Y-29070008D03*
D14*
%TO.P,JP2,3,B*%
%TO.N,DIN*%
X20282301Y-30350008D03*
%TD*%
D15*
%TO.P,D3,1*%
%TO.N,row_2*%
X22840772Y-22111848D03*
%TO.P,D3,2*%
%TO.N,row_1*%
X19540772Y-22111848D03*
%TD*%
D12*
%TO.P,JP2,1,A*%
%TO.N,DIN*%
X30599919Y-27790008D03*
D13*
%TO.P,JP2,2,C*%
%TO.N,DOUT1*%
X30599919Y-29070008D03*
D14*
%TO.P,JP2,3,B*%
%TO.N,DOUT*%
X30599919Y-30350008D03*
%TD*%
D16*
%TO.P,REF\u002A\u002A,1*%
%TO.N,VCC*%
X28065013Y-30847946D03*
D17*
%TO.P,REF\u002A\u002A,2*%
%TO.N,DOUT*%
X28065013Y-29345495D03*
D18*
%TO.P,REF\u002A\u002A,3*%
%TO.N,GND*%
X22755893Y-29349364D03*
D19*
%TO.P,REF\u002A\u002A,4*%
%TO.N,DIN*%
X22755893Y-30849352D03*
%TD*%
D20*
%TO.P,REF\u002A\u002A,1*%
%TO.N,VCC*%
X23770122Y-32944693D03*
%TO.P,REF\u002A\u002A,2*%
%TO.N,GND*%
X22045122Y-32944693D03*
%TD*%
D21*
%TO.N,GND*%
X22760442Y-26983734D03*
X31943218Y-27008346D03*
%TO.N,DIN*%
X21449622Y-30799326D03*
X29263377Y-28364809D03*
%TD*%
D22*
%TO.N,DIN*%
X29838178Y-27790008D02*
X30599919Y-27790008D01*
X29263377Y-28364809D02*
X29838178Y-27790008D01*
%TO.N,column_1*%
X30000000Y-17786551D02*
X33300000Y-21086551D01*
X33300000Y-21086551D02*
X33300000Y-21590000D01*
X30000000Y-17670950D02*
X30000000Y-17786551D01*
%TO.N,row_1*%
X19886018Y-22111848D02*
X19540772Y-22111848D01*
X22125000Y-19872866D02*
X19886018Y-22111848D01*
X22125000Y-19390000D02*
X22125000Y-19872866D01*
%TO.N,row_2*%
X34199155Y-23799155D02*
X28833280Y-23799155D01*
X34400000Y-24000000D02*
X34199155Y-23799155D01*
X28833280Y-23799155D02*
X27013635Y-21979510D01*
X20562168Y-23501395D02*
X17298605Y-23501395D01*
X17298605Y-23501395D02*
X16800000Y-24000000D01*
X27013635Y-21979510D02*
X22084053Y-21979510D01*
X22084053Y-21979510D02*
X20562168Y-23501395D01*
%TO.N,VCC*%
X17931321Y-30000000D02*
X19784311Y-31852990D01*
X28065013Y-30847946D02*
X28956489Y-31739422D01*
X32756275Y-30000000D02*
X34400000Y-30000000D01*
X19784311Y-31852990D02*
X22462512Y-31852990D01*
X23574813Y-32965291D02*
X27459816Y-32965291D01*
X28956489Y-31739422D02*
X31016853Y-31739422D01*
X27459816Y-32965291D02*
X28065013Y-32360094D01*
X28065013Y-32360094D02*
X28065013Y-30847946D01*
X16800000Y-30000000D02*
X17931321Y-30000000D01*
X22462512Y-31852990D02*
X23574813Y-32965291D01*
X31016853Y-31739422D02*
X32756275Y-30000000D01*
%TO.N,DIN*%
X21287627Y-30849352D02*
X22755893Y-30849352D01*
X20282301Y-30350008D02*
X20788283Y-30350008D01*
X20788283Y-30350008D02*
X21287627Y-30849352D01*
%TO.N,DOUT*%
X20282301Y-27790008D02*
X22145926Y-25926383D01*
X29320579Y-29971656D02*
X29698931Y-30350008D01*
X22145926Y-24564393D02*
X24031289Y-22679030D01*
X26723884Y-22679030D02*
X28337013Y-24292159D01*
X29698931Y-30350008D02*
X30599919Y-30350008D01*
X22145926Y-25926383D02*
X22145926Y-24564393D01*
X28065013Y-29480049D02*
X28556620Y-29971656D01*
X28556620Y-29971656D02*
X29320579Y-29971656D01*
X24031289Y-22679030D02*
X26723884Y-22679030D01*
X28337013Y-24292159D02*
X28337013Y-29073495D01*
X28337013Y-29073495D02*
X28065013Y-29345495D01*
X28065013Y-29345495D02*
X28065013Y-29480049D01*
%TO.N,DOUT1*%
X31627642Y-29070008D02*
X30599919Y-29070008D01*
X34400000Y-28187847D02*
X32509803Y-28187847D01*
X32509803Y-28187847D02*
X31627642Y-29070008D01*
%TO.N,DIN1*%
X20282301Y-29070008D02*
X19566140Y-29070008D01*
X19566140Y-29070008D02*
X18683979Y-28187847D01*
X18683979Y-28187847D02*
X16800000Y-28187847D01*
%TD*%
%TA.AperFunction,Conductor*%
%TO.N,GND*%
G36*
X18766478Y-31909965D02*
G01*
X18781270Y-31922630D01*
X19200541Y-32341901D01*
X19212927Y-32356313D01*
X19221460Y-32367908D01*
X19221465Y-32367913D01*
X19225803Y-32373808D01*
X19231381Y-32378547D01*
X19231384Y-32378550D01*
X19266079Y-32408025D01*
X19273595Y-32414955D01*
X19279291Y-32420651D01*
X19282152Y-32422914D01*
X19282157Y-32422919D01*
X19301567Y-32438275D01*
X19304969Y-32441064D01*
X19350928Y-32480109D01*
X19360596Y-32488323D01*
X19367113Y-32491651D01*
X19372161Y-32495017D01*
X19377283Y-32498180D01*
X19383027Y-32502725D01*
X19449206Y-32533654D01*
X19453090Y-32535553D01*
X19518119Y-32568759D01*
X19525234Y-32570500D01*
X19530889Y-32572603D01*
X19536628Y-32574512D01*
X19543261Y-32577612D01*
X19614746Y-32592481D01*
X19619012Y-32593447D01*
X19689921Y-32610798D01*
X19695523Y-32611146D01*
X19695526Y-32611146D01*
X19701075Y-32611490D01*
X19701073Y-32611525D01*
X19705045Y-32611765D01*
X19709266Y-32612142D01*
X19716426Y-32613631D01*
X19793853Y-32611536D01*
X19797261Y-32611490D01*
X20887363Y-32611490D01*
X20955484Y-32631492D01*
X21001977Y-32685148D01*
X21002436Y-32686378D01*
X21005487Y-32689022D01*
X21013170Y-32690693D01*
X22173122Y-32690693D01*
X22241243Y-32710695D01*
X22287736Y-32764351D01*
X22299122Y-32816693D01*
X22299122Y-33072693D01*
X22279120Y-33140814D01*
X22225464Y-33187307D01*
X22173122Y-33198693D01*
X21017739Y-33198693D01*
X21012559Y-33200214D01*
X20941563Y-33200214D01*
X20881836Y-33161831D01*
X20876232Y-33154881D01*
X20868282Y-33144273D01*
X20855724Y-33131715D01*
X20753649Y-33055214D01*
X20738054Y-33046676D01*
X20617606Y-33001522D01*
X20602351Y-32997895D01*
X20551486Y-32992369D01*
X20544672Y-32992000D01*
X20272115Y-32992000D01*
X20256876Y-32996475D01*
X20255671Y-32997865D01*
X20254000Y-33005548D01*
X20254000Y-33727885D01*
X20258475Y-33743124D01*
X20259865Y-33744329D01*
X20267548Y-33746000D01*
X20989884Y-33746000D01*
X21005123Y-33741525D01*
X21027388Y-33715830D01*
X21027985Y-33716347D01*
X21034604Y-33704223D01*
X21096914Y-33670193D01*
X21167730Y-33675252D01*
X21212725Y-33704138D01*
X21274751Y-33766056D01*
X21286165Y-33775070D01*
X21345243Y-33811486D01*
X21392737Y-33864258D01*
X21404161Y-33934329D01*
X21375887Y-33999453D01*
X21316894Y-34038953D01*
X21279128Y-34044746D01*
X18397843Y-34044746D01*
X18329722Y-34024744D01*
X18283229Y-33971088D01*
X18273125Y-33900814D01*
X18302619Y-33836234D01*
X18324317Y-33816423D01*
X18421919Y-33746289D01*
X18426478Y-33743013D01*
X18441138Y-33727885D01*
X18992000Y-33727885D01*
X18996475Y-33743124D01*
X18997865Y-33744329D01*
X19005548Y-33746000D01*
X19727885Y-33746000D01*
X19743124Y-33741525D01*
X19744329Y-33740135D01*
X19746000Y-33732452D01*
X19746000Y-33010116D01*
X19741525Y-32994877D01*
X19740135Y-32993672D01*
X19732452Y-32992001D01*
X19455331Y-32992001D01*
X19448510Y-32992371D01*
X19397648Y-32997895D01*
X19382396Y-33001521D01*
X19261946Y-33046676D01*
X19246351Y-33055214D01*
X19144276Y-33131715D01*
X19131715Y-33144276D01*
X19055214Y-33246351D01*
X19046676Y-33261946D01*
X19001522Y-33382394D01*
X18997895Y-33397649D01*
X18992369Y-33448514D01*
X18992000Y-33455328D01*
X18992000Y-33727885D01*
X18441138Y-33727885D01*
X18492143Y-33675252D01*
X18572701Y-33592123D01*
X18572703Y-33592120D01*
X18576604Y-33588095D01*
X18696924Y-33409040D01*
X18783635Y-33211507D01*
X18833995Y-33001742D01*
X18841336Y-32874431D01*
X18846090Y-32791981D01*
X18846090Y-32791978D01*
X18846413Y-32786374D01*
X18834632Y-32689022D01*
X18821171Y-32577779D01*
X18821171Y-32577778D01*
X18820497Y-32572210D01*
X18808917Y-32534567D01*
X18758712Y-32371378D01*
X18757064Y-32366021D01*
X18658122Y-32174323D01*
X18592213Y-32088429D01*
X18566612Y-32022209D01*
X18580877Y-31952660D01*
X18630478Y-31901864D01*
X18699667Y-31885948D01*
X18766478Y-31909965D01*
G37*
%TD.AperFunction*%
%TA.AperFunction,Conductor*%
G36*
X23156407Y-24730759D02*
G01*
X23213243Y-24773306D01*
X23238054Y-24839826D01*
X23236384Y-24871123D01*
X23185910Y-25151650D01*
X23185721Y-25155817D01*
X23185720Y-25155824D01*
X23181595Y-25246676D01*
X23172514Y-25446659D01*
X23172877Y-25450807D01*
X23172877Y-25450811D01*
X23174517Y-25469553D01*
X23198252Y-25740849D01*
X23199162Y-25744921D01*
X23199163Y-25744926D01*
X23260822Y-26020773D01*
X23262672Y-26029050D01*
X23364644Y-26306199D01*
X23366591Y-26309892D01*
X23366592Y-26309894D01*
X23428027Y-26426416D01*
X23502374Y-26567427D01*
X23543830Y-26625761D01*
X23671019Y-26804735D01*
X23671024Y-26804741D01*
X23673443Y-26808145D01*
X23676287Y-26811195D01*
X23676292Y-26811201D01*
X23833969Y-26980289D01*
X23874846Y-27024124D01*
X24103045Y-27211568D01*
X24354029Y-27367185D01*
X24357846Y-27368901D01*
X24357849Y-27368902D01*
X24430708Y-27401646D01*
X24623390Y-27488241D01*
X24693116Y-27509027D01*
X24838991Y-27552514D01*
X24906395Y-27572608D01*
X24910515Y-27573261D01*
X24910517Y-27573261D01*
X25194592Y-27618255D01*
X25194598Y-27618256D01*
X25198073Y-27618806D01*
X25222632Y-27619921D01*
X25289017Y-27622936D01*
X25289038Y-27622936D01*
X25290437Y-27623000D01*
X25474901Y-27623000D01*
X25694664Y-27608403D01*
X25698763Y-27607577D01*
X25698767Y-27607576D01*
X25841361Y-27578824D01*
X25984151Y-27550033D01*
X26263375Y-27453888D01*
X26433089Y-27368902D01*
X26523695Y-27323530D01*
X26523697Y-27323529D01*
X26527431Y-27321659D01*
X26771678Y-27155668D01*
X26778416Y-27149644D01*
X26910543Y-27031508D01*
X26991827Y-26958832D01*
X26994545Y-26955661D01*
X27181289Y-26737784D01*
X27181292Y-26737780D01*
X27184009Y-26734610D01*
X27186283Y-26731108D01*
X27186287Y-26731103D01*
X27344849Y-26486939D01*
X27345653Y-26487461D01*
X27393222Y-26440822D01*
X27462742Y-26426416D01*
X27529014Y-26451882D01*
X27570997Y-26509135D01*
X27578513Y-26552000D01*
X27578513Y-27927363D01*
X27558511Y-27995484D01*
X27504855Y-28041977D01*
X27434581Y-28052081D01*
X27386686Y-28034801D01*
X27366458Y-28022407D01*
X27366457Y-28022407D01*
X27361054Y-28019096D01*
X27229372Y-27971234D01*
X27223103Y-27970302D01*
X27223102Y-27970302D01*
X27176080Y-27963314D01*
X27148135Y-27959161D01*
X27139952Y-27957667D01*
X27103392Y-27949734D01*
X27098535Y-27949446D01*
X27095727Y-27949279D01*
X27095720Y-27949279D01*
X27090861Y-27948991D01*
X27086016Y-27949454D01*
X27086011Y-27949454D01*
X27049069Y-27952984D01*
X27036682Y-27953554D01*
X26340154Y-27951324D01*
X23748398Y-27943027D01*
X23742464Y-27942867D01*
X23698079Y-27940620D01*
X23688708Y-27940146D01*
X23688707Y-27940146D01*
X23683847Y-27939900D01*
X23679005Y-27940405D01*
X23679002Y-27940405D01*
X23676212Y-27940696D01*
X23676209Y-27940697D01*
X23671362Y-27941202D01*
X23666647Y-27942448D01*
X23637592Y-27950126D01*
X23622864Y-27953092D01*
X23619561Y-27953554D01*
X23597155Y-27956689D01*
X23597152Y-27956690D01*
X23588261Y-27957934D01*
X23580075Y-27961625D01*
X23571451Y-27964117D01*
X23571360Y-27963803D01*
X23561320Y-27967132D01*
X23553483Y-27968856D01*
X23540941Y-27971616D01*
X23540939Y-27971617D01*
X23534748Y-27972979D01*
X23406708Y-28029800D01*
X23401544Y-28033477D01*
X23297759Y-28107369D01*
X23297755Y-28107372D01*
X23292594Y-28111047D01*
X23197004Y-28213445D01*
X23123787Y-28332870D01*
X23121621Y-28338824D01*
X23121619Y-28338828D01*
X23117164Y-28351075D01*
X23075078Y-28408253D01*
X23034254Y-28428894D01*
X23012769Y-28435203D01*
X23011564Y-28436593D01*
X23009893Y-28444276D01*
X23009893Y-29477364D01*
X22989891Y-29545485D01*
X22936235Y-29591978D01*
X22883893Y-29603364D01*
X22627893Y-29603364D01*
X22559772Y-29583362D01*
X22513279Y-29529706D01*
X22501893Y-29477364D01*
X22501893Y-28448843D01*
X22497418Y-28433604D01*
X22496028Y-28432399D01*
X22488345Y-28430728D01*
X22172576Y-28430728D01*
X22166060Y-28431065D01*
X22076698Y-28440337D01*
X22063302Y-28443230D01*
X21919003Y-28491372D01*
X21905825Y-28497546D01*
X21776840Y-28577364D01*
X21765439Y-28586400D01*
X21658269Y-28693757D01*
X21649257Y-28705168D01*
X21569657Y-28834303D01*
X21563513Y-28847480D01*
X21536394Y-28929241D01*
X21495964Y-28987601D01*
X21430399Y-29014838D01*
X21360518Y-29002305D01*
X21308506Y-28953980D01*
X21290801Y-28889574D01*
X21290801Y-28521874D01*
X21284046Y-28459692D01*
X21281461Y-28452796D01*
X21279342Y-28406074D01*
X21287250Y-28351075D01*
X21296030Y-28290008D01*
X21296030Y-27901150D01*
X21316032Y-27833029D01*
X21332935Y-27812055D01*
X22634837Y-26510153D01*
X22649249Y-26497767D01*
X22660844Y-26489234D01*
X22660849Y-26489229D01*
X22666744Y-26484891D01*
X22671483Y-26479313D01*
X22671486Y-26479310D01*
X22700961Y-26444615D01*
X22707891Y-26437099D01*
X22713587Y-26431403D01*
X22715850Y-26428542D01*
X22715855Y-26428537D01*
X22731219Y-26409117D01*
X22734008Y-26405716D01*
X22735669Y-26403761D01*
X22781259Y-26350098D01*
X22784585Y-26343585D01*
X22787946Y-26338546D01*
X22791122Y-26333404D01*
X22795660Y-26327667D01*
X22826581Y-26261508D01*
X22828487Y-26257608D01*
X22853880Y-26207879D01*
X22861695Y-26192575D01*
X22863434Y-26185466D01*
X22865530Y-26179832D01*
X22867449Y-26174062D01*
X22870548Y-26167433D01*
X22885417Y-26095948D01*
X22886387Y-26091665D01*
X22900748Y-26032975D01*
X22903734Y-26020773D01*
X22904426Y-26009619D01*
X22904461Y-26009621D01*
X22904701Y-26005649D01*
X22905078Y-26001428D01*
X22906567Y-25994268D01*
X22904472Y-25916841D01*
X22904426Y-25913433D01*
X22904426Y-24930764D01*
X22924428Y-24862643D01*
X22941331Y-24841669D01*
X23023280Y-24759720D01*
X23085592Y-24725694D01*
X23156407Y-24730759D01*
G37*
%TD.AperFunction*%
%TA.AperFunction,Conductor*%
G36*
X33359306Y-24577657D02*
G01*
X33405799Y-24631313D01*
X33409167Y-24639425D01*
X33432471Y-24701587D01*
X33449385Y-24746705D01*
X33536739Y-24863261D01*
X33653295Y-24950615D01*
X33661703Y-24953767D01*
X33737774Y-24982285D01*
X33794538Y-25024927D01*
X33819238Y-25091488D01*
X33804030Y-25160837D01*
X33753744Y-25210955D01*
X33737774Y-25218249D01*
X33661946Y-25246676D01*
X33646351Y-25255214D01*
X33544276Y-25331715D01*
X33531715Y-25344276D01*
X33455214Y-25446351D01*
X33446676Y-25461946D01*
X33401522Y-25582394D01*
X33397895Y-25597649D01*
X33392369Y-25648514D01*
X33392000Y-25655328D01*
X33392000Y-25927885D01*
X33396475Y-25943124D01*
X33397865Y-25944329D01*
X33405548Y-25946000D01*
X34365500Y-25946000D01*
X34433621Y-25966002D01*
X34480114Y-26019658D01*
X34491500Y-26072000D01*
X34491500Y-26328000D01*
X34471498Y-26396121D01*
X34417842Y-26442614D01*
X34365500Y-26454000D01*
X33410116Y-26454000D01*
X33394877Y-26458475D01*
X33393672Y-26459865D01*
X33392001Y-26467548D01*
X33392001Y-26744669D01*
X33392371Y-26751490D01*
X33397895Y-26802352D01*
X33401521Y-26817604D01*
X33446676Y-26938054D01*
X33455214Y-26953649D01*
X33531715Y-27055724D01*
X33544277Y-27068286D01*
X33576966Y-27092785D01*
X33619481Y-27149644D01*
X33624507Y-27220463D01*
X33590447Y-27282756D01*
X33576969Y-27294435D01*
X33536739Y-27324586D01*
X33531358Y-27331766D01*
X33496024Y-27378912D01*
X33439165Y-27421427D01*
X33395198Y-27429347D01*
X32576873Y-27429347D01*
X32557923Y-27427914D01*
X32543688Y-27425748D01*
X32543684Y-27425748D01*
X32536454Y-27424648D01*
X32529162Y-27425241D01*
X32529159Y-27425241D01*
X32483785Y-27428932D01*
X32473570Y-27429347D01*
X32465510Y-27429347D01*
X32452220Y-27430896D01*
X32437296Y-27432636D01*
X32432921Y-27433069D01*
X32367464Y-27438393D01*
X32367461Y-27438394D01*
X32360166Y-27438987D01*
X32353202Y-27441243D01*
X32347243Y-27442434D01*
X32341388Y-27443818D01*
X32334122Y-27444665D01*
X32265476Y-27469582D01*
X32261348Y-27470999D01*
X32198867Y-27491240D01*
X32198865Y-27491241D01*
X32191904Y-27493496D01*
X32185649Y-27497292D01*
X32180175Y-27499798D01*
X32174745Y-27502517D01*
X32167866Y-27505014D01*
X32161746Y-27509027D01*
X32161745Y-27509027D01*
X32106827Y-27545033D01*
X32103123Y-27547370D01*
X32040696Y-27585252D01*
X32032319Y-27592650D01*
X32032295Y-27592623D01*
X32029303Y-27595276D01*
X32026070Y-27597979D01*
X32019951Y-27601991D01*
X31966675Y-27658230D01*
X31964297Y-27660672D01*
X31828056Y-27796913D01*
X31765744Y-27830939D01*
X31694929Y-27825874D01*
X31638093Y-27783327D01*
X31616311Y-27724289D01*
X31614106Y-27724591D01*
X31594949Y-27584732D01*
X31594948Y-27584728D01*
X31594339Y-27580281D01*
X31554982Y-27442572D01*
X31495505Y-27309610D01*
X31493119Y-27305828D01*
X31493115Y-27305821D01*
X31421470Y-27192272D01*
X31419079Y-27188482D01*
X31324673Y-27077556D01*
X31318079Y-27071732D01*
X31220677Y-26985711D01*
X31217322Y-26982748D01*
X31194726Y-26967905D01*
X31170287Y-26951851D01*
X31124334Y-26897733D01*
X31114933Y-26827362D01*
X31145071Y-26763079D01*
X31207810Y-26724581D01*
X31353172Y-26686853D01*
X31358038Y-26684661D01*
X31358041Y-26684660D01*
X31558649Y-26594293D01*
X31563515Y-26592101D01*
X31567935Y-26589125D01*
X31567939Y-26589123D01*
X31703633Y-26497767D01*
X31754885Y-26463262D01*
X31921812Y-26304022D01*
X32023437Y-26167433D01*
X32056337Y-26123214D01*
X32056339Y-26123211D01*
X32059521Y-26118934D01*
X32115100Y-26009619D01*
X32161658Y-25918046D01*
X32161658Y-25918045D01*
X32164077Y-25913288D01*
X32217621Y-25740849D01*
X32230905Y-25698070D01*
X32230906Y-25698064D01*
X32232489Y-25692967D01*
X32262800Y-25464268D01*
X32262128Y-25446351D01*
X32254346Y-25239063D01*
X32254146Y-25233732D01*
X32206772Y-25007950D01*
X32196637Y-24982285D01*
X32158893Y-24886712D01*
X32122033Y-24793378D01*
X32095116Y-24749020D01*
X32076877Y-24680406D01*
X32098629Y-24612824D01*
X32153465Y-24567730D01*
X32202835Y-24557655D01*
X33291185Y-24557655D01*
X33359306Y-24577657D01*
G37*
%TD.AperFunction*%
%TA.AperFunction,Conductor*%
G36*
X18879163Y-24279897D02*
G01*
X18925656Y-24333553D01*
X18935760Y-24403827D01*
X18906266Y-24468407D01*
X18898014Y-24477065D01*
X18878188Y-24495978D01*
X18875000Y-24500263D01*
X18771461Y-24639425D01*
X18740479Y-24681066D01*
X18738064Y-24685816D01*
X18640061Y-24878574D01*
X18635923Y-24886712D01*
X18615102Y-24953767D01*
X18569095Y-25101930D01*
X18569094Y-25101936D01*
X18567511Y-25107033D01*
X18553738Y-25210955D01*
X18547872Y-25255214D01*
X18537200Y-25335732D01*
X18537400Y-25341062D01*
X18537400Y-25341063D01*
X18541352Y-25446351D01*
X18545854Y-25566268D01*
X18593228Y-25792050D01*
X18595186Y-25797009D01*
X18595187Y-25797011D01*
X18635597Y-25899336D01*
X18677967Y-26006622D01*
X18797647Y-26203849D01*
X18801144Y-26207879D01*
X18929394Y-26355674D01*
X18948847Y-26378092D01*
X18952978Y-26381479D01*
X19123115Y-26520984D01*
X19123121Y-26520988D01*
X19127243Y-26524368D01*
X19327735Y-26638494D01*
X19332751Y-26640315D01*
X19332756Y-26640317D01*
X19539575Y-26715389D01*
X19539579Y-26715390D01*
X19544590Y-26717209D01*
X19549839Y-26718158D01*
X19549842Y-26718159D01*
X19643590Y-26735111D01*
X19707064Y-26766915D01*
X19743267Y-26827988D01*
X19740705Y-26898938D01*
X19700191Y-26957240D01*
X19692231Y-26962891D01*
X19692239Y-26962902D01*
X19688608Y-26965538D01*
X19684805Y-26967905D01*
X19681377Y-26970787D01*
X19681375Y-26970788D01*
X19614101Y-27027337D01*
X19575170Y-27060062D01*
X19478083Y-27168647D01*
X19475598Y-27172380D01*
X19475595Y-27172384D01*
X19401202Y-27284143D01*
X19398720Y-27287872D01*
X19336012Y-27419341D01*
X19327405Y-27446891D01*
X19312011Y-27496163D01*
X19272605Y-27555219D01*
X19207526Y-27583596D01*
X19137436Y-27572283D01*
X19119709Y-27560796D01*
X19119363Y-27561315D01*
X19113270Y-27557251D01*
X19107694Y-27552514D01*
X19101179Y-27549187D01*
X19096129Y-27545819D01*
X19091000Y-27542652D01*
X19085263Y-27538113D01*
X19019104Y-27507192D01*
X19015204Y-27505286D01*
X18950171Y-27472078D01*
X18943063Y-27470339D01*
X18937420Y-27468240D01*
X18931657Y-27466323D01*
X18925029Y-27463225D01*
X18853562Y-27448360D01*
X18849278Y-27447390D01*
X18814937Y-27438987D01*
X18778369Y-27430039D01*
X18772767Y-27429691D01*
X18772764Y-27429691D01*
X18767215Y-27429347D01*
X18767217Y-27429311D01*
X18763224Y-27429072D01*
X18759032Y-27428698D01*
X18751864Y-27427207D01*
X18688099Y-27428932D01*
X18674458Y-27429301D01*
X18671051Y-27429347D01*
X17904802Y-27429347D01*
X17836681Y-27409345D01*
X17803976Y-27378912D01*
X17768642Y-27331766D01*
X17763261Y-27324586D01*
X17723033Y-27294436D01*
X17680518Y-27237577D01*
X17675494Y-27166758D01*
X17709554Y-27104465D01*
X17723034Y-27092785D01*
X17755723Y-27068286D01*
X17768285Y-27055724D01*
X17844786Y-26953649D01*
X17853324Y-26938054D01*
X17898478Y-26817606D01*
X17902105Y-26802351D01*
X17907631Y-26751486D01*
X17908000Y-26744672D01*
X17908000Y-26472115D01*
X17903525Y-26456876D01*
X17902135Y-26455671D01*
X17894452Y-26454000D01*
X16934500Y-26454000D01*
X16866379Y-26433998D01*
X16819886Y-26380342D01*
X16808500Y-26328000D01*
X16808500Y-26072000D01*
X16828502Y-26003879D01*
X16882158Y-25957386D01*
X16934500Y-25946000D01*
X17889884Y-25946000D01*
X17905123Y-25941525D01*
X17906328Y-25940135D01*
X17907999Y-25932452D01*
X17907999Y-25655331D01*
X17907629Y-25648510D01*
X17902105Y-25597648D01*
X17898479Y-25582396D01*
X17853324Y-25461946D01*
X17844786Y-25446351D01*
X17768285Y-25344276D01*
X17755724Y-25331715D01*
X17653649Y-25255214D01*
X17638054Y-25246676D01*
X17562226Y-25218249D01*
X17505462Y-25175607D01*
X17480762Y-25109046D01*
X17495970Y-25039697D01*
X17546256Y-24989579D01*
X17562226Y-24982285D01*
X17638297Y-24953767D01*
X17646705Y-24950615D01*
X17763261Y-24863261D01*
X17850615Y-24746705D01*
X17901745Y-24610316D01*
X17908500Y-24548134D01*
X17908500Y-24385895D01*
X17928502Y-24317774D01*
X17982158Y-24271281D01*
X18034500Y-24259895D01*
X18811042Y-24259895D01*
X18879163Y-24279897D01*
G37*
%TD.AperFunction*%
%TA.AperFunction,Conductor*%
G36*
X24618509Y-17381748D02*
G01*
X24665002Y-17435404D01*
X24675106Y-17505678D01*
X24645612Y-17570258D01*
X24593483Y-17606146D01*
X24581074Y-17610663D01*
X24333058Y-17742536D01*
X24329499Y-17745122D01*
X24329497Y-17745123D01*
X24115271Y-17900767D01*
X24105808Y-17907642D01*
X24074597Y-17937782D01*
X24011703Y-17970714D01*
X23940987Y-17964415D01*
X23884901Y-17920884D01*
X23878271Y-17910379D01*
X23875615Y-17903295D01*
X23788261Y-17786739D01*
X23671705Y-17699385D01*
X23535316Y-17648255D01*
X23473134Y-17641500D01*
X20776866Y-17641500D01*
X20773469Y-17641869D01*
X20722534Y-17647402D01*
X20722532Y-17647402D01*
X20714684Y-17648255D01*
X20708165Y-17650699D01*
X20680014Y-17654000D01*
X20272115Y-17654000D01*
X20256876Y-17658475D01*
X20255671Y-17659865D01*
X20254000Y-17667548D01*
X20254000Y-18389884D01*
X20258475Y-18405123D01*
X20273013Y-18417721D01*
X20311396Y-18477447D01*
X20316500Y-18512945D01*
X20316500Y-20556495D01*
X20296498Y-20624616D01*
X20279595Y-20645590D01*
X19958742Y-20966443D01*
X19896430Y-21000469D01*
X19869647Y-21003348D01*
X19042638Y-21003348D01*
X18980456Y-21010103D01*
X18844067Y-21061233D01*
X18727511Y-21148587D01*
X18640157Y-21265143D01*
X18589027Y-21401532D01*
X18582272Y-21463714D01*
X18582272Y-22616895D01*
X18562270Y-22685016D01*
X18508614Y-22731509D01*
X18456272Y-22742895D01*
X17365675Y-22742895D01*
X17346725Y-22741462D01*
X17332490Y-22739296D01*
X17332486Y-22739296D01*
X17325256Y-22738196D01*
X17317964Y-22738789D01*
X17317961Y-22738789D01*
X17272587Y-22742480D01*
X17262372Y-22742895D01*
X17254312Y-22742895D01*
X17250678Y-22743319D01*
X17250672Y-22743319D01*
X17237647Y-22744838D01*
X17226085Y-22746186D01*
X17221737Y-22746616D01*
X17148969Y-22752535D01*
X17142008Y-22754790D01*
X17136068Y-22755977D01*
X17130193Y-22757366D01*
X17122924Y-22758213D01*
X17054275Y-22783131D01*
X17050147Y-22784548D01*
X16987668Y-22804788D01*
X16987663Y-22804790D01*
X16986413Y-22805195D01*
X16986414Y-22805195D01*
X16980705Y-22807044D01*
X16980388Y-22806067D01*
X16916686Y-22815287D01*
X16852077Y-22785855D01*
X16813637Y-22726165D01*
X16808500Y-22690553D01*
X16808500Y-19559760D01*
X16828502Y-19491639D01*
X16882158Y-19445146D01*
X16952432Y-19435042D01*
X17001456Y-19453023D01*
X17078006Y-19501043D01*
X17078010Y-19501045D01*
X17082762Y-19504026D01*
X17282920Y-19584489D01*
X17494164Y-19628236D01*
X17498775Y-19628502D01*
X17498776Y-19628502D01*
X17547079Y-19631287D01*
X17547083Y-19631287D01*
X17548902Y-19631392D01*
X17688362Y-19631392D01*
X17691149Y-19631143D01*
X17691155Y-19631143D01*
X17757867Y-19625189D01*
X17848499Y-19617100D01*
X17975367Y-19582393D01*
X18051163Y-19561658D01*
X18051167Y-19561657D01*
X18056579Y-19560176D01*
X18251290Y-19467303D01*
X18426478Y-19341418D01*
X18576604Y-19186500D01*
X18696924Y-19007445D01*
X18783635Y-18809912D01*
X18833995Y-18600147D01*
X18845074Y-18408000D01*
X18846090Y-18390386D01*
X18846090Y-18390383D01*
X18846413Y-18384779D01*
X18829442Y-18244538D01*
X18841116Y-18174509D01*
X18888798Y-18121907D01*
X18957349Y-18103435D01*
X19025005Y-18124956D01*
X19055356Y-18153838D01*
X19131715Y-18255724D01*
X19144276Y-18268285D01*
X19246351Y-18344786D01*
X19261946Y-18353324D01*
X19382394Y-18398478D01*
X19397649Y-18402105D01*
X19448514Y-18407631D01*
X19455328Y-18408000D01*
X19727885Y-18408000D01*
X19743124Y-18403525D01*
X19744329Y-18402135D01*
X19746000Y-18394452D01*
X19746000Y-17672115D01*
X19741525Y-17656876D01*
X19740135Y-17655671D01*
X19732452Y-17654000D01*
X19010116Y-17654000D01*
X18994877Y-17658475D01*
X18993672Y-17659865D01*
X18992001Y-17667548D01*
X18992001Y-17900767D01*
X18971999Y-17968888D01*
X18918343Y-18015381D01*
X18848069Y-18025485D01*
X18783489Y-17995991D01*
X18754035Y-17958557D01*
X18660693Y-17777709D01*
X18660692Y-17777708D01*
X18658122Y-17772728D01*
X18579434Y-17670180D01*
X18530212Y-17606032D01*
X18530208Y-17606028D01*
X18526796Y-17601581D01*
X18522651Y-17597809D01*
X18522647Y-17597805D01*
X18504111Y-17580939D01*
X18467189Y-17520299D01*
X18468912Y-17449323D01*
X18508735Y-17390546D01*
X18574012Y-17362630D01*
X18588911Y-17361746D01*
X24550388Y-17361746D01*
X24618509Y-17381748D01*
G37*
%TD.AperFunction*%
%TD*%
M02*
