%TF.GenerationSoftware,KiCad,Pcbnew,6.0.5*%
%TF.CreationDate,2022-10-09T08:24:47+11:00*%
%TF.ProjectId,ameoba,616d656f-6261-42e6-9b69-6361645f7063,rev?*%
%TF.SameCoordinates,Original*%
%TF.FileFunction,Legend,Top*%
%TF.FilePolarity,Positive*%
%FSLAX46Y46*%
G04 Gerber Fmt 4.6, Leading zero omitted, Abs format (unit mm)*
G04 Created by KiCad (PCBNEW 6.0.5) date 2022-10-09 08:24:47*
%MOMM*%
%LPD*%
G01*
G04 APERTURE LIST*
%ADD10C,0.125000*%
%ADD11C,0.150000*%
G04 APERTURE END LIST*
D10*
X32223954Y-25964320D02*
X32176335Y-25940510D01*
X32104907Y-25940510D01*
X32033478Y-25964320D01*
X31985859Y-26011939D01*
X31962049Y-26059558D01*
X31938240Y-26154796D01*
X31938240Y-26226224D01*
X31962049Y-26321462D01*
X31985859Y-26369081D01*
X32033478Y-26416700D01*
X32104907Y-26440510D01*
X32152526Y-26440510D01*
X32223954Y-26416700D01*
X32247764Y-26392891D01*
X32247764Y-26226224D01*
X32152526Y-26226224D01*
X32462049Y-26440510D02*
X32462049Y-25940510D01*
X32747764Y-26440510D01*
X32747764Y-25940510D01*
X32985859Y-26440510D02*
X32985859Y-25940510D01*
X33104907Y-25940510D01*
X33176335Y-25964320D01*
X33223954Y-26011939D01*
X33247764Y-26059558D01*
X33271573Y-26154796D01*
X33271573Y-26226224D01*
X33247764Y-26321462D01*
X33223954Y-26369081D01*
X33176335Y-26416700D01*
X33104907Y-26440510D01*
X32985859Y-26440510D01*
X31971324Y-29712137D02*
X32137991Y-30212137D01*
X32304657Y-29712137D01*
X32757038Y-30164518D02*
X32733229Y-30188327D01*
X32661800Y-30212137D01*
X32614181Y-30212137D01*
X32542752Y-30188327D01*
X32495133Y-30140708D01*
X32471324Y-30093089D01*
X32447514Y-29997851D01*
X32447514Y-29926423D01*
X32471324Y-29831185D01*
X32495133Y-29783566D01*
X32542752Y-29735947D01*
X32614181Y-29712137D01*
X32661800Y-29712137D01*
X32733229Y-29735947D01*
X32757038Y-29759756D01*
X33257038Y-30164518D02*
X33233229Y-30188327D01*
X33161800Y-30212137D01*
X33114181Y-30212137D01*
X33042752Y-30188327D01*
X32995133Y-30140708D01*
X32971324Y-30093089D01*
X32947514Y-29997851D01*
X32947514Y-29926423D01*
X32971324Y-29831185D01*
X32995133Y-29783566D01*
X33042752Y-29735947D01*
X33114181Y-29712137D01*
X33161800Y-29712137D01*
X33233229Y-29735947D01*
X33257038Y-29759756D01*
X19667736Y-32608677D02*
X19620117Y-32584867D01*
X19548689Y-32584867D01*
X19477260Y-32608677D01*
X19429641Y-32656296D01*
X19405831Y-32703915D01*
X19382022Y-32799153D01*
X19382022Y-32870581D01*
X19405831Y-32965819D01*
X19429641Y-33013438D01*
X19477260Y-33061057D01*
X19548689Y-33084867D01*
X19596308Y-33084867D01*
X19667736Y-33061057D01*
X19691546Y-33037248D01*
X19691546Y-32870581D01*
X19596308Y-32870581D01*
X19905831Y-33084867D02*
X19905831Y-32584867D01*
X20191546Y-33084867D01*
X20191546Y-32584867D01*
X20429641Y-33084867D02*
X20429641Y-32584867D01*
X20548689Y-32584867D01*
X20620117Y-32608677D01*
X20667736Y-32656296D01*
X20691546Y-32703915D01*
X20715355Y-32799153D01*
X20715355Y-32870581D01*
X20691546Y-32965819D01*
X20667736Y-33013438D01*
X20620117Y-33061057D01*
X20548689Y-33084867D01*
X20429641Y-33084867D01*
X18084990Y-24256936D02*
X17918324Y-24018841D01*
X17799276Y-24256936D02*
X17799276Y-23756936D01*
X17989752Y-23756936D01*
X18037371Y-23780746D01*
X18061181Y-23804555D01*
X18084990Y-23852174D01*
X18084990Y-23923603D01*
X18061181Y-23971222D01*
X18037371Y-23995031D01*
X17989752Y-24018841D01*
X17799276Y-24018841D01*
X18394514Y-23756936D02*
X18489752Y-23756936D01*
X18537371Y-23780746D01*
X18584990Y-23828365D01*
X18608800Y-23923603D01*
X18608800Y-24090269D01*
X18584990Y-24185507D01*
X18537371Y-24233126D01*
X18489752Y-24256936D01*
X18394514Y-24256936D01*
X18346895Y-24233126D01*
X18299276Y-24185507D01*
X18275467Y-24090269D01*
X18275467Y-23923603D01*
X18299276Y-23828365D01*
X18346895Y-23780746D01*
X18394514Y-23756936D01*
X18775467Y-23756936D02*
X18894514Y-24256936D01*
X18989752Y-23899793D01*
X19084990Y-24256936D01*
X19204038Y-23756936D01*
X17711927Y-29778306D02*
X17878594Y-30278306D01*
X18045260Y-29778306D01*
X18497641Y-30230687D02*
X18473832Y-30254496D01*
X18402403Y-30278306D01*
X18354784Y-30278306D01*
X18283355Y-30254496D01*
X18235736Y-30206877D01*
X18211927Y-30159258D01*
X18188117Y-30064020D01*
X18188117Y-29992592D01*
X18211927Y-29897354D01*
X18235736Y-29849735D01*
X18283355Y-29802116D01*
X18354784Y-29778306D01*
X18402403Y-29778306D01*
X18473832Y-29802116D01*
X18497641Y-29825925D01*
X18997641Y-30230687D02*
X18973832Y-30254496D01*
X18902403Y-30278306D01*
X18854784Y-30278306D01*
X18783355Y-30254496D01*
X18735736Y-30206877D01*
X18711927Y-30159258D01*
X18688117Y-30064020D01*
X18688117Y-29992592D01*
X18711927Y-29897354D01*
X18735736Y-29849735D01*
X18783355Y-29802116D01*
X18854784Y-29778306D01*
X18902403Y-29778306D01*
X18973832Y-29802116D01*
X18997641Y-29825925D01*
X32079711Y-24256936D02*
X31913045Y-24018841D01*
X31793997Y-24256936D02*
X31793997Y-23756936D01*
X31984473Y-23756936D01*
X32032092Y-23780746D01*
X32055902Y-23804555D01*
X32079711Y-23852174D01*
X32079711Y-23923603D01*
X32055902Y-23971222D01*
X32032092Y-23995031D01*
X31984473Y-24018841D01*
X31793997Y-24018841D01*
X32389235Y-23756936D02*
X32484473Y-23756936D01*
X32532092Y-23780746D01*
X32579711Y-23828365D01*
X32603521Y-23923603D01*
X32603521Y-24090269D01*
X32579711Y-24185507D01*
X32532092Y-24233126D01*
X32484473Y-24256936D01*
X32389235Y-24256936D01*
X32341616Y-24233126D01*
X32293997Y-24185507D01*
X32270188Y-24090269D01*
X32270188Y-23923603D01*
X32293997Y-23828365D01*
X32341616Y-23780746D01*
X32389235Y-23756936D01*
X32770188Y-23756936D02*
X32889235Y-24256936D01*
X32984473Y-23899793D01*
X33079711Y-24256936D01*
X33198759Y-23756936D01*
X18030726Y-26063573D02*
X17983107Y-26039763D01*
X17911679Y-26039763D01*
X17840250Y-26063573D01*
X17792631Y-26111192D01*
X17768821Y-26158811D01*
X17745012Y-26254049D01*
X17745012Y-26325477D01*
X17768821Y-26420715D01*
X17792631Y-26468334D01*
X17840250Y-26515953D01*
X17911679Y-26539763D01*
X17959298Y-26539763D01*
X18030726Y-26515953D01*
X18054536Y-26492144D01*
X18054536Y-26325477D01*
X17959298Y-26325477D01*
X18268821Y-26539763D02*
X18268821Y-26039763D01*
X18554536Y-26539763D01*
X18554536Y-26039763D01*
X18792631Y-26539763D02*
X18792631Y-26039763D01*
X18911679Y-26039763D01*
X18983107Y-26063573D01*
X19030726Y-26111192D01*
X19054536Y-26158811D01*
X19078345Y-26254049D01*
X19078345Y-26325477D01*
X19054536Y-26420715D01*
X19030726Y-26468334D01*
X18983107Y-26515953D01*
X18911679Y-26539763D01*
X18792631Y-26539763D01*
X29188561Y-19722279D02*
X29212370Y-19746089D01*
X29236180Y-19817517D01*
X29236180Y-19865136D01*
X29212370Y-19936565D01*
X29164751Y-19984184D01*
X29117132Y-20007993D01*
X29021894Y-20031803D01*
X28950466Y-20031803D01*
X28855228Y-20007993D01*
X28807609Y-19984184D01*
X28759990Y-19936565D01*
X28736180Y-19865136D01*
X28736180Y-19817517D01*
X28759990Y-19746089D01*
X28783799Y-19722279D01*
X28736180Y-19412755D02*
X28736180Y-19317517D01*
X28759990Y-19269898D01*
X28807609Y-19222279D01*
X28902847Y-19198470D01*
X29069513Y-19198470D01*
X29164751Y-19222279D01*
X29212370Y-19269898D01*
X29236180Y-19317517D01*
X29236180Y-19412755D01*
X29212370Y-19460374D01*
X29164751Y-19507993D01*
X29069513Y-19531803D01*
X28902847Y-19531803D01*
X28807609Y-19507993D01*
X28759990Y-19460374D01*
X28736180Y-19412755D01*
X29236180Y-18746089D02*
X29236180Y-18984184D01*
X28736180Y-18984184D01*
X28736180Y-18579422D02*
X29140942Y-18579422D01*
X29188561Y-18555612D01*
X29212370Y-18531803D01*
X29236180Y-18484184D01*
X29236180Y-18388946D01*
X29212370Y-18341327D01*
X29188561Y-18317517D01*
X29140942Y-18293708D01*
X28736180Y-18293708D01*
X29236180Y-18055612D02*
X28736180Y-18055612D01*
X29093323Y-17888946D01*
X28736180Y-17722279D01*
X29236180Y-17722279D01*
X29236180Y-17484184D02*
X28736180Y-17484184D01*
X29236180Y-17198470D01*
X28736180Y-17198470D01*
X30289699Y-28458661D02*
X30289699Y-27958661D01*
X30408747Y-27958661D01*
X30480175Y-27982471D01*
X30527795Y-28030090D01*
X30551604Y-28077709D01*
X30575414Y-28172947D01*
X30575414Y-28244375D01*
X30551604Y-28339613D01*
X30527795Y-28387232D01*
X30480175Y-28434851D01*
X30408747Y-28458661D01*
X30289699Y-28458661D01*
X30884937Y-27958661D02*
X30980175Y-27958661D01*
X31027795Y-27982471D01*
X31075414Y-28030090D01*
X31099223Y-28125328D01*
X31099223Y-28291994D01*
X31075414Y-28387232D01*
X31027795Y-28434851D01*
X30980175Y-28458661D01*
X30884937Y-28458661D01*
X30837318Y-28434851D01*
X30789699Y-28387232D01*
X30765890Y-28291994D01*
X30765890Y-28125328D01*
X30789699Y-28030090D01*
X30837318Y-27982471D01*
X30884937Y-27958661D01*
X31313509Y-27958661D02*
X31313509Y-28363423D01*
X31337318Y-28411042D01*
X31361128Y-28434851D01*
X31408747Y-28458661D01*
X31503985Y-28458661D01*
X31551604Y-28434851D01*
X31575414Y-28411042D01*
X31599223Y-28363423D01*
X31599223Y-27958661D01*
X31765890Y-27958661D02*
X32051604Y-27958661D01*
X31908747Y-28458661D02*
X31908747Y-27958661D01*
X32575414Y-27934851D02*
X32146842Y-28577709D01*
X32742080Y-28458661D02*
X32742080Y-27958661D01*
X32980175Y-28458661D02*
X32980175Y-27958661D01*
X33265890Y-28458661D01*
X33265890Y-27958661D01*
X29090965Y-33952686D02*
X29114774Y-33976496D01*
X29138584Y-34047924D01*
X29138584Y-34095543D01*
X29114774Y-34166972D01*
X29067155Y-34214591D01*
X29019536Y-34238400D01*
X28924298Y-34262210D01*
X28852870Y-34262210D01*
X28757632Y-34238400D01*
X28710013Y-34214591D01*
X28662394Y-34166972D01*
X28638584Y-34095543D01*
X28638584Y-34047924D01*
X28662394Y-33976496D01*
X28686203Y-33952686D01*
X28638584Y-33643162D02*
X28638584Y-33547924D01*
X28662394Y-33500305D01*
X28710013Y-33452686D01*
X28805251Y-33428877D01*
X28971917Y-33428877D01*
X29067155Y-33452686D01*
X29114774Y-33500305D01*
X29138584Y-33547924D01*
X29138584Y-33643162D01*
X29114774Y-33690781D01*
X29067155Y-33738400D01*
X28971917Y-33762210D01*
X28805251Y-33762210D01*
X28710013Y-33738400D01*
X28662394Y-33690781D01*
X28638584Y-33643162D01*
X29138584Y-32976496D02*
X29138584Y-33214591D01*
X28638584Y-33214591D01*
X28638584Y-32809829D02*
X29043346Y-32809829D01*
X29090965Y-32786019D01*
X29114774Y-32762210D01*
X29138584Y-32714591D01*
X29138584Y-32619353D01*
X29114774Y-32571734D01*
X29090965Y-32547924D01*
X29043346Y-32524115D01*
X28638584Y-32524115D01*
X29138584Y-32286019D02*
X28638584Y-32286019D01*
X28995727Y-32119353D01*
X28638584Y-31952686D01*
X29138584Y-31952686D01*
X29138584Y-31714591D02*
X28638584Y-31714591D01*
X29138584Y-31428877D01*
X28638584Y-31428877D01*
X19618779Y-18553404D02*
X19571160Y-18529594D01*
X19499732Y-18529594D01*
X19428303Y-18553404D01*
X19380684Y-18601023D01*
X19356874Y-18648642D01*
X19333065Y-18743880D01*
X19333065Y-18815308D01*
X19356874Y-18910546D01*
X19380684Y-18958165D01*
X19428303Y-19005784D01*
X19499732Y-19029594D01*
X19547351Y-19029594D01*
X19618779Y-19005784D01*
X19642589Y-18981975D01*
X19642589Y-18815308D01*
X19547351Y-18815308D01*
X19856874Y-19029594D02*
X19856874Y-18529594D01*
X20142589Y-19029594D01*
X20142589Y-18529594D01*
X20380684Y-19029594D02*
X20380684Y-18529594D01*
X20499732Y-18529594D01*
X20571160Y-18553404D01*
X20618779Y-18601023D01*
X20642589Y-18648642D01*
X20666398Y-18743880D01*
X20666398Y-18815308D01*
X20642589Y-18910546D01*
X20618779Y-18958165D01*
X20571160Y-19005784D01*
X20499732Y-19029594D01*
X20380684Y-19029594D01*
X17750694Y-28392492D02*
X17750694Y-27892492D01*
X17869742Y-27892492D01*
X17941170Y-27916302D01*
X17988790Y-27963921D01*
X18012599Y-28011540D01*
X18036409Y-28106778D01*
X18036409Y-28178206D01*
X18012599Y-28273444D01*
X17988790Y-28321063D01*
X17941170Y-28368682D01*
X17869742Y-28392492D01*
X17750694Y-28392492D01*
X18250694Y-28392492D02*
X18250694Y-27892492D01*
X18488790Y-28392492D02*
X18488790Y-27892492D01*
X18774504Y-28392492D01*
X18774504Y-27892492D01*
X19369742Y-27868682D02*
X18941170Y-28511540D01*
X19631647Y-27892492D02*
X19726885Y-27892492D01*
X19774504Y-27916302D01*
X19822123Y-27963921D01*
X19845932Y-28059159D01*
X19845932Y-28225825D01*
X19822123Y-28321063D01*
X19774504Y-28368682D01*
X19726885Y-28392492D01*
X19631647Y-28392492D01*
X19584028Y-28368682D01*
X19536409Y-28321063D01*
X19512599Y-28225825D01*
X19512599Y-28059159D01*
X19536409Y-27963921D01*
X19584028Y-27916302D01*
X19631647Y-27892492D01*
X20060218Y-27892492D02*
X20060218Y-28297254D01*
X20084028Y-28344873D01*
X20107837Y-28368682D01*
X20155456Y-28392492D01*
X20250694Y-28392492D01*
X20298313Y-28368682D01*
X20322123Y-28344873D01*
X20345932Y-28297254D01*
X20345932Y-27892492D01*
X20512599Y-27892492D02*
X20798313Y-27892492D01*
X20655456Y-28392492D02*
X20655456Y-27892492D01*
D11*
%TO.C,*%
%TO.C,G_logo*%
G36*
X20387908Y-22073303D02*
G01*
X20384326Y-22086487D01*
X20380625Y-22095170D01*
X20380477Y-22095379D01*
X20376886Y-22102419D01*
X20370859Y-22116345D01*
X20363583Y-22134389D01*
X20362207Y-22137927D01*
X20347750Y-22175318D01*
X20281519Y-22175318D01*
X20252903Y-22175072D01*
X20233304Y-22174245D01*
X20221432Y-22172709D01*
X20215999Y-22170332D01*
X20215288Y-22168613D01*
X20218588Y-22158785D01*
X20219998Y-22157009D01*
X20223793Y-22150297D01*
X20230107Y-22136302D01*
X20237890Y-22117423D01*
X20242468Y-22105694D01*
X20260227Y-22059277D01*
X20325877Y-22057831D01*
X20391527Y-22056384D01*
X20387908Y-22073303D01*
G37*
G36*
X22505375Y-23763428D02*
G01*
X22529396Y-23764290D01*
X22550007Y-23765868D01*
X22564923Y-23768152D01*
X22571733Y-23770957D01*
X22574636Y-23780294D01*
X22576208Y-23799739D01*
X22576454Y-23829345D01*
X22576233Y-23841871D01*
X22574780Y-23905612D01*
X22496870Y-23907032D01*
X22465871Y-23907431D01*
X22443620Y-23907240D01*
X22428560Y-23906343D01*
X22419136Y-23904622D01*
X22413792Y-23901959D01*
X22412504Y-23900672D01*
X22410135Y-23892610D01*
X22408589Y-23876899D01*
X22407834Y-23856170D01*
X22407842Y-23833054D01*
X22408581Y-23810181D01*
X22410021Y-23790183D01*
X22412134Y-23775689D01*
X22413994Y-23770232D01*
X22420830Y-23767354D01*
X22435670Y-23765246D01*
X22456229Y-23763896D01*
X22480224Y-23763293D01*
X22505375Y-23763428D01*
G37*
G36*
X23031871Y-23645166D02*
G01*
X23041856Y-23600271D01*
X23058478Y-23561940D01*
X23081262Y-23530824D01*
X23109732Y-23507577D01*
X23142491Y-23493115D01*
X23189148Y-23480973D01*
X23228951Y-23474050D01*
X23263901Y-23472273D01*
X23295997Y-23475567D01*
X23327238Y-23483857D01*
X23333321Y-23486020D01*
X23349510Y-23493575D01*
X23366886Y-23504127D01*
X23383045Y-23515880D01*
X23395588Y-23527040D01*
X23402112Y-23535810D01*
X23402537Y-23537756D01*
X23405305Y-23545199D01*
X23412059Y-23556359D01*
X23412948Y-23557626D01*
X23420092Y-23569952D01*
X23428705Y-23588050D01*
X23436692Y-23607417D01*
X23442951Y-23625118D01*
X23446679Y-23640093D01*
X23448319Y-23655868D01*
X23448313Y-23675967D01*
X23447583Y-23694161D01*
X23441298Y-23745184D01*
X23427669Y-23788974D01*
X23406773Y-23825458D01*
X23378689Y-23854563D01*
X23343494Y-23876219D01*
X23301268Y-23890352D01*
X23252088Y-23896890D01*
X23227186Y-23897328D01*
X23205946Y-23896332D01*
X23185738Y-23894262D01*
X23174243Y-23892265D01*
X23137253Y-23878571D01*
X23103229Y-23856516D01*
X23074106Y-23827901D01*
X23051818Y-23794526D01*
X23040941Y-23768088D01*
X23032698Y-23729635D01*
X23029503Y-23687230D01*
X23029597Y-23685509D01*
X23203978Y-23685509D01*
X23204259Y-23714795D01*
X23205257Y-23735865D01*
X23207204Y-23750805D01*
X23210333Y-23761703D01*
X23213136Y-23767653D01*
X23225037Y-23780721D01*
X23240004Y-23784804D01*
X23255559Y-23779614D01*
X23262830Y-23773403D01*
X23271807Y-23757661D01*
X23277803Y-23734696D01*
X23280856Y-23707144D01*
X23281005Y-23677645D01*
X23278289Y-23648838D01*
X23272745Y-23623359D01*
X23264414Y-23603849D01*
X23260268Y-23598262D01*
X23247159Y-23590225D01*
X23232406Y-23591399D01*
X23218219Y-23601431D01*
X23214803Y-23605570D01*
X23210250Y-23612706D01*
X23207175Y-23621018D01*
X23205297Y-23632592D01*
X23204332Y-23649514D01*
X23203998Y-23673868D01*
X23203978Y-23685509D01*
X23029597Y-23685509D01*
X23031743Y-23646126D01*
X23031871Y-23645166D01*
G37*
G36*
X22237576Y-23474448D02*
G01*
X22274918Y-23484826D01*
X22307251Y-23500310D01*
X22333334Y-23520463D01*
X22351930Y-23544850D01*
X22360614Y-23567238D01*
X22364016Y-23583766D01*
X22364113Y-23595364D01*
X22359596Y-23602833D01*
X22349161Y-23606975D01*
X22331501Y-23608591D01*
X22305310Y-23608482D01*
X22293876Y-23608185D01*
X22267370Y-23607220D01*
X22248943Y-23605838D01*
X22236359Y-23603641D01*
X22227383Y-23600229D01*
X22219779Y-23595202D01*
X22219370Y-23594881D01*
X22199645Y-23585177D01*
X22177920Y-23583806D01*
X22167771Y-23586408D01*
X22160490Y-23590473D01*
X22160055Y-23594842D01*
X22167128Y-23599845D01*
X22182372Y-23605809D01*
X22206448Y-23613064D01*
X22238539Y-23621563D01*
X22283186Y-23635819D01*
X22318378Y-23653609D01*
X22344476Y-23675294D01*
X22361842Y-23701237D01*
X22370835Y-23731800D01*
X22372345Y-23755961D01*
X22367473Y-23793713D01*
X22354102Y-23825627D01*
X22332254Y-23851682D01*
X22301949Y-23871856D01*
X22263208Y-23886127D01*
X22244868Y-23890272D01*
X22215503Y-23894409D01*
X22182730Y-23896678D01*
X22150708Y-23896947D01*
X22123596Y-23895081D01*
X22118354Y-23894313D01*
X22082747Y-23884884D01*
X22053557Y-23869038D01*
X22034833Y-23852674D01*
X22014163Y-23828852D01*
X22001253Y-23807282D01*
X21994731Y-23785422D01*
X21993624Y-23776296D01*
X21991999Y-23756049D01*
X22070447Y-23754626D01*
X22148895Y-23753204D01*
X22156927Y-23768734D01*
X22168725Y-23782606D01*
X22184091Y-23788242D01*
X22200382Y-23784676D01*
X22200391Y-23784672D01*
X22209994Y-23776287D01*
X22210127Y-23767231D01*
X22201541Y-23758227D01*
X22184986Y-23749998D01*
X22161213Y-23743267D01*
X22156465Y-23742316D01*
X22116707Y-23733716D01*
X22085447Y-23724390D01*
X22060869Y-23713697D01*
X22042436Y-23701977D01*
X22017753Y-23677731D01*
X22001929Y-23650244D01*
X21994576Y-23620843D01*
X21995305Y-23590857D01*
X22003728Y-23561613D01*
X22019456Y-23534440D01*
X22042101Y-23510664D01*
X22071275Y-23491614D01*
X22106589Y-23478618D01*
X22107870Y-23478304D01*
X22152814Y-23470751D01*
X22196462Y-23469611D01*
X22237576Y-23474448D01*
G37*
G36*
X20165149Y-22283986D02*
G01*
X20182186Y-22284964D01*
X20192542Y-22286392D01*
X20194651Y-22287491D01*
X20192881Y-22293720D01*
X20188149Y-22307154D01*
X20181307Y-22325417D01*
X20177525Y-22335196D01*
X20160408Y-22379034D01*
X20110904Y-22380505D01*
X20089392Y-22380742D01*
X20072048Y-22380175D01*
X20061250Y-22378923D01*
X20058919Y-22377926D01*
X20059644Y-22371674D01*
X20063636Y-22358236D01*
X20070161Y-22339931D01*
X20074515Y-22328749D01*
X20092591Y-22283623D01*
X20143625Y-22283623D01*
X20165149Y-22283986D01*
G37*
G36*
X23635531Y-20974326D02*
G01*
X23646659Y-20975093D01*
X23652169Y-20976780D01*
X23653624Y-20979582D01*
X23652999Y-20982521D01*
X23649964Y-20990995D01*
X23644169Y-21006637D01*
X23636533Y-21026980D01*
X23630363Y-21043277D01*
X23610771Y-21094851D01*
X23545334Y-21096294D01*
X23517033Y-21096681D01*
X23497716Y-21096306D01*
X23486075Y-21095065D01*
X23480799Y-21092856D01*
X23480138Y-21091137D01*
X23482086Y-21083925D01*
X23487186Y-21069399D01*
X23494631Y-21049769D01*
X23502336Y-21030384D01*
X23524292Y-20976232D01*
X23590167Y-20974785D01*
X23617222Y-20974288D01*
X23635531Y-20974326D01*
G37*
G36*
X21410715Y-21617358D02*
G01*
X21419474Y-21595115D01*
X21429551Y-21569529D01*
X21442894Y-21535678D01*
X21458978Y-21494893D01*
X21477280Y-21448503D01*
X21497274Y-21397835D01*
X21518436Y-21344221D01*
X21527839Y-21320403D01*
X21632735Y-21320403D01*
X21666008Y-21403607D01*
X21679718Y-21437986D01*
X21694714Y-21475749D01*
X21709474Y-21513052D01*
X21722475Y-21546053D01*
X21726547Y-21556435D01*
X21736514Y-21581606D01*
X21745374Y-21603464D01*
X21752355Y-21620144D01*
X21756687Y-21629782D01*
X21757483Y-21631216D01*
X21761278Y-21639116D01*
X21766244Y-21652492D01*
X21767729Y-21657003D01*
X21771178Y-21666684D01*
X21777936Y-21684653D01*
X21787503Y-21709615D01*
X21799375Y-21740272D01*
X21813053Y-21775328D01*
X21828035Y-21813487D01*
X21838531Y-21840090D01*
X21853971Y-21879150D01*
X21868361Y-21915565D01*
X21881220Y-21948116D01*
X21892068Y-21975587D01*
X21900423Y-21996759D01*
X21905805Y-22010415D01*
X21907552Y-22014866D01*
X21911750Y-22023326D01*
X21914311Y-22025180D01*
X21916678Y-22020019D01*
X21922267Y-22006609D01*
X21930529Y-21986304D01*
X21940915Y-21960459D01*
X21952878Y-21930425D01*
X21961076Y-21909714D01*
X21973768Y-21877149D01*
X21985077Y-21847318D01*
X21994465Y-21821706D01*
X22001396Y-21801799D01*
X22005331Y-21789084D01*
X22006030Y-21785528D01*
X22004203Y-21778957D01*
X21998880Y-21763647D01*
X21990384Y-21740443D01*
X21979036Y-21710187D01*
X21965158Y-21673724D01*
X21949071Y-21631898D01*
X21931096Y-21585551D01*
X21911557Y-21535529D01*
X21890773Y-21482675D01*
X21886136Y-21470929D01*
X21864562Y-21416313D01*
X21843662Y-21363394D01*
X21823821Y-21313148D01*
X21805424Y-21266551D01*
X21788856Y-21224577D01*
X21774503Y-21188204D01*
X21762749Y-21158406D01*
X21753979Y-21136158D01*
X21748579Y-21122437D01*
X21748261Y-21121628D01*
X21740454Y-21102264D01*
X21734049Y-21087363D01*
X21729929Y-21078929D01*
X21728934Y-21077790D01*
X21726716Y-21082826D01*
X21721263Y-21096162D01*
X21713096Y-21116490D01*
X21702738Y-21142505D01*
X21690712Y-21172900D01*
X21680085Y-21199891D01*
X21632735Y-21320403D01*
X21527839Y-21320403D01*
X21540242Y-21288987D01*
X21562168Y-21233465D01*
X21573120Y-21205734D01*
X21604179Y-21127095D01*
X21631664Y-21057483D01*
X21655794Y-20996332D01*
X21674762Y-20948218D01*
X21778548Y-20948218D01*
X21826571Y-21070530D01*
X21837592Y-21098564D01*
X21851114Y-21132901D01*
X21866686Y-21172400D01*
X21883855Y-21215919D01*
X21902171Y-21262314D01*
X21921183Y-21310446D01*
X21940438Y-21359172D01*
X21959485Y-21407350D01*
X21977873Y-21453838D01*
X21995151Y-21497494D01*
X22010867Y-21537177D01*
X22024569Y-21571745D01*
X22035807Y-21600056D01*
X22044128Y-21620968D01*
X22048832Y-21632720D01*
X22055134Y-21646709D01*
X22059846Y-21650863D01*
X22064537Y-21645159D01*
X22069728Y-21632410D01*
X22073717Y-21622032D01*
X22080743Y-21604115D01*
X22090001Y-21580695D01*
X22100688Y-21553806D01*
X22107871Y-21535805D01*
X22119225Y-21507353D01*
X22129837Y-21480679D01*
X22138850Y-21457943D01*
X22145406Y-21441306D01*
X22147829Y-21435086D01*
X22155836Y-21414306D01*
X22108913Y-21295837D01*
X22094179Y-21258604D01*
X22077091Y-21215367D01*
X22058208Y-21167546D01*
X22038091Y-21116565D01*
X22017300Y-21063843D01*
X21996396Y-21010804D01*
X21975938Y-20958869D01*
X21956487Y-20909459D01*
X21938602Y-20863996D01*
X21922845Y-20823902D01*
X21909775Y-20790598D01*
X21900184Y-20766102D01*
X21891404Y-20744271D01*
X21883772Y-20726485D01*
X21878139Y-20714652D01*
X21875433Y-20710660D01*
X21872606Y-20715202D01*
X21866908Y-20727724D01*
X21859055Y-20746537D01*
X21849766Y-20769953D01*
X21845309Y-20781541D01*
X21835137Y-20808079D01*
X21825717Y-20832365D01*
X21817914Y-20852188D01*
X21812595Y-20865338D01*
X21811492Y-20867927D01*
X21805954Y-20880933D01*
X21798380Y-20899209D01*
X21791621Y-20915809D01*
X21778548Y-20948218D01*
X21674762Y-20948218D01*
X21676788Y-20943078D01*
X21694866Y-20897155D01*
X21710247Y-20857999D01*
X21723150Y-20825044D01*
X21733794Y-20797724D01*
X21742398Y-20775476D01*
X21749182Y-20757733D01*
X21754365Y-20743931D01*
X21758166Y-20733504D01*
X21760803Y-20725888D01*
X21762498Y-20720517D01*
X21763467Y-20716826D01*
X21763932Y-20714250D01*
X21764009Y-20713579D01*
X21764013Y-20709779D01*
X21762232Y-20706978D01*
X21757283Y-20704993D01*
X21747781Y-20703644D01*
X21732343Y-20702746D01*
X21709585Y-20702120D01*
X21678123Y-20701582D01*
X21672066Y-20701490D01*
X21579058Y-20700089D01*
X21548984Y-20778851D01*
X21538285Y-20806684D01*
X21528342Y-20832213D01*
X21519959Y-20853393D01*
X21513944Y-20868180D01*
X21511828Y-20873085D01*
X21504911Y-20888986D01*
X21496435Y-20909644D01*
X21487212Y-20932926D01*
X21478056Y-20956697D01*
X21469782Y-20978824D01*
X21463203Y-20997173D01*
X21459132Y-21009609D01*
X21458212Y-21013666D01*
X21455877Y-21022320D01*
X21450054Y-21035414D01*
X21447820Y-21039677D01*
X21443813Y-21048355D01*
X21436573Y-21065394D01*
X21426599Y-21089539D01*
X21414391Y-21119534D01*
X21400448Y-21154126D01*
X21385270Y-21192060D01*
X21369358Y-21232080D01*
X21353212Y-21272933D01*
X21337330Y-21313363D01*
X21322212Y-21352116D01*
X21308360Y-21387937D01*
X21296272Y-21419571D01*
X21292303Y-21430079D01*
X21284212Y-21451260D01*
X21276620Y-21470578D01*
X21270897Y-21484562D01*
X21269922Y-21486810D01*
X21264694Y-21499187D01*
X21256790Y-21518641D01*
X21246756Y-21543772D01*
X21235134Y-21573180D01*
X21222469Y-21605463D01*
X21209303Y-21639220D01*
X21196180Y-21673051D01*
X21183644Y-21705555D01*
X21172238Y-21735330D01*
X21162506Y-21760976D01*
X21154992Y-21781091D01*
X21150238Y-21794276D01*
X21148770Y-21799058D01*
X21146399Y-21807572D01*
X21142360Y-21815931D01*
X21139112Y-21823070D01*
X21132528Y-21838723D01*
X21123048Y-21861808D01*
X21111109Y-21891240D01*
X21097152Y-21925934D01*
X21081615Y-21964807D01*
X21064936Y-22006775D01*
X21058443Y-22023176D01*
X20980937Y-22219156D01*
X20752532Y-22220499D01*
X20524126Y-22221842D01*
X20501220Y-22173486D01*
X20491625Y-22152451D01*
X20484006Y-22134264D01*
X20479326Y-22121312D01*
X20478313Y-22116701D01*
X20479028Y-22114660D01*
X20481764Y-22112975D01*
X20487412Y-22111612D01*
X20496861Y-22110538D01*
X20511003Y-22109720D01*
X20530726Y-22109122D01*
X20556920Y-22108712D01*
X20590476Y-22108457D01*
X20632283Y-22108322D01*
X20683231Y-22108275D01*
X20701528Y-22108272D01*
X20924742Y-22108272D01*
X20930339Y-22094090D01*
X20933263Y-22086686D01*
X20939606Y-22070631D01*
X20948995Y-22046865D01*
X20961060Y-22016330D01*
X20975429Y-21979967D01*
X20991728Y-21938716D01*
X21009587Y-21893520D01*
X21028634Y-21845319D01*
X21037833Y-21822039D01*
X21074827Y-21728418D01*
X21108316Y-21643665D01*
X21138587Y-21567052D01*
X21165927Y-21497854D01*
X21190621Y-21435346D01*
X21212957Y-21378801D01*
X21233221Y-21327494D01*
X21251700Y-21280699D01*
X21268680Y-21237690D01*
X21284448Y-21197741D01*
X21299291Y-21160126D01*
X21313495Y-21124120D01*
X21327347Y-21088997D01*
X21341133Y-21054030D01*
X21355140Y-21018495D01*
X21362650Y-20999440D01*
X21380204Y-20954907D01*
X21397368Y-20911378D01*
X21413591Y-20870248D01*
X21428324Y-20832914D01*
X21441015Y-20800768D01*
X21451115Y-20775206D01*
X21458072Y-20757624D01*
X21458855Y-20755648D01*
X21467093Y-20734646D01*
X21473681Y-20717412D01*
X21477821Y-20706057D01*
X21478841Y-20702672D01*
X21473951Y-20701930D01*
X21460348Y-20701421D01*
X21439631Y-20701163D01*
X21413398Y-20701177D01*
X21383250Y-20701481D01*
X21382753Y-20701488D01*
X21286665Y-20702892D01*
X21258369Y-20774836D01*
X21248394Y-20800409D01*
X21239847Y-20822723D01*
X21233415Y-20839951D01*
X21229786Y-20850267D01*
X21229246Y-20852197D01*
X21225885Y-20861489D01*
X21224810Y-20863382D01*
X21221470Y-20870472D01*
X21215307Y-20885118D01*
X21207027Y-20905510D01*
X21197337Y-20929834D01*
X21186942Y-20956278D01*
X21176549Y-20983031D01*
X21166865Y-21008280D01*
X21158595Y-21030214D01*
X21152446Y-21047019D01*
X21149123Y-21056884D01*
X21148738Y-21058578D01*
X21146478Y-21066480D01*
X21141032Y-21078452D01*
X21140548Y-21079379D01*
X21138470Y-21083328D01*
X21136504Y-21087223D01*
X21134297Y-21091941D01*
X21131498Y-21098361D01*
X21127755Y-21107359D01*
X21122715Y-21119814D01*
X21116028Y-21136602D01*
X21107340Y-21158602D01*
X21096301Y-21186691D01*
X21082558Y-21221746D01*
X21065759Y-21264644D01*
X21045553Y-21316264D01*
X21045415Y-21316618D01*
X21030261Y-21355288D01*
X21016152Y-21391208D01*
X21003567Y-21423165D01*
X20992985Y-21449947D01*
X20984884Y-21470341D01*
X20979744Y-21483134D01*
X20978212Y-21486810D01*
X20972776Y-21499601D01*
X20964754Y-21519342D01*
X20954706Y-21544579D01*
X20943191Y-21573861D01*
X20930768Y-21605733D01*
X20917997Y-21638742D01*
X20905438Y-21671436D01*
X20893650Y-21702362D01*
X20883191Y-21730065D01*
X20874623Y-21753094D01*
X20868503Y-21769995D01*
X20865392Y-21779315D01*
X20865115Y-21780576D01*
X20862023Y-21789254D01*
X20860098Y-21791008D01*
X20856056Y-21797225D01*
X20850449Y-21810398D01*
X20844998Y-21826125D01*
X20830022Y-21867340D01*
X20809903Y-21911285D01*
X20806802Y-21917450D01*
X20800256Y-21930343D01*
X20609952Y-21931697D01*
X20561077Y-21931915D01*
X20517824Y-21931845D01*
X20481026Y-21931504D01*
X20451513Y-21930906D01*
X20430121Y-21930065D01*
X20417680Y-21928998D01*
X20414806Y-21928209D01*
X20411520Y-21921308D01*
X20406980Y-21907277D01*
X20401850Y-21888813D01*
X20396794Y-21868608D01*
X20392476Y-21849359D01*
X20389560Y-21833758D01*
X20388708Y-21824500D01*
X20388974Y-21823328D01*
X20394482Y-21822420D01*
X20409109Y-21821588D01*
X20431658Y-21820858D01*
X20460933Y-21820254D01*
X20495737Y-21819804D01*
X20534874Y-21819532D01*
X20568982Y-21819460D01*
X20746717Y-21819460D01*
X20752489Y-21805277D01*
X20758935Y-21789610D01*
X20764769Y-21775623D01*
X20768761Y-21765709D01*
X20775661Y-21748131D01*
X20784700Y-21724862D01*
X20795113Y-21697876D01*
X20802883Y-21677633D01*
X20813824Y-21649205D01*
X20823970Y-21623101D01*
X20832544Y-21601294D01*
X20838774Y-21585760D01*
X20841338Y-21579643D01*
X20844861Y-21571148D01*
X20851848Y-21553806D01*
X20862000Y-21528376D01*
X20875017Y-21495615D01*
X20890602Y-21456280D01*
X20908454Y-21411128D01*
X20928274Y-21360918D01*
X20949764Y-21306406D01*
X20972624Y-21248351D01*
X20996555Y-21187509D01*
X21021258Y-21124639D01*
X21046435Y-21060497D01*
X21062289Y-21020069D01*
X21077334Y-20981718D01*
X21091318Y-20946118D01*
X21103760Y-20914492D01*
X21114178Y-20888063D01*
X21122090Y-20868057D01*
X21127012Y-20855696D01*
X21128332Y-20852455D01*
X21135905Y-20834174D01*
X21144862Y-20811885D01*
X21154437Y-20787577D01*
X21163865Y-20763238D01*
X21172382Y-20740857D01*
X21179223Y-20722422D01*
X21183622Y-20709922D01*
X21184872Y-20705479D01*
X21180048Y-20703384D01*
X21166883Y-20701802D01*
X21147339Y-20700719D01*
X21123376Y-20700122D01*
X21096955Y-20699998D01*
X21070037Y-20700334D01*
X21044582Y-20701116D01*
X21022552Y-20702331D01*
X21005907Y-20703966D01*
X20996608Y-20706007D01*
X20995491Y-20706760D01*
X20991987Y-20713679D01*
X20985684Y-20728393D01*
X20977353Y-20749019D01*
X20967764Y-20773676D01*
X20963309Y-20785409D01*
X20953136Y-20812187D01*
X20943671Y-20836697D01*
X20935769Y-20856752D01*
X20930285Y-20870167D01*
X20929006Y-20873085D01*
X20924222Y-20884239D01*
X20916488Y-20903110D01*
X20906556Y-20927787D01*
X20895182Y-20956360D01*
X20883120Y-20986919D01*
X20871125Y-21017555D01*
X20859951Y-21046357D01*
X20850353Y-21071416D01*
X20844453Y-21087115D01*
X20838626Y-21102448D01*
X20829644Y-21125602D01*
X20818195Y-21154827D01*
X20804966Y-21188372D01*
X20790645Y-21224487D01*
X20777565Y-21257308D01*
X20762773Y-21294420D01*
X20748387Y-21330684D01*
X20735109Y-21364310D01*
X20723647Y-21393508D01*
X20714704Y-21416488D01*
X20709504Y-21430079D01*
X20701018Y-21452215D01*
X20692624Y-21473403D01*
X20685900Y-21489671D01*
X20684902Y-21491968D01*
X20679539Y-21504745D01*
X20671551Y-21524512D01*
X20661996Y-21548624D01*
X20651931Y-21574436D01*
X20651414Y-21575775D01*
X20627010Y-21638953D01*
X20390205Y-21638953D01*
X20341893Y-21638894D01*
X20296892Y-21638725D01*
X20256221Y-21638459D01*
X20220899Y-21638107D01*
X20191946Y-21637682D01*
X20170379Y-21637195D01*
X20157219Y-21636658D01*
X20153400Y-21636159D01*
X20154615Y-21634638D01*
X20158879Y-21631941D01*
X20167122Y-21627626D01*
X20180271Y-21621251D01*
X20199257Y-21612374D01*
X20225006Y-21600553D01*
X20258449Y-21585346D01*
X20293938Y-21569284D01*
X20320963Y-21556799D01*
X20339754Y-21547354D01*
X20351643Y-21540130D01*
X20357962Y-21534310D01*
X20360043Y-21529074D01*
X20360066Y-21528658D01*
X20369290Y-21402034D01*
X20388143Y-21278699D01*
X20416538Y-21158908D01*
X20454387Y-21042914D01*
X20501602Y-20930972D01*
X20558096Y-20823334D01*
X20623780Y-20720256D01*
X20654385Y-20677986D01*
X20686861Y-20636658D01*
X20723133Y-20593753D01*
X20761041Y-20551649D01*
X20798421Y-20512723D01*
X20833112Y-20479354D01*
X20843320Y-20470212D01*
X20940632Y-20390997D01*
X21040845Y-20321523D01*
X21144522Y-20261531D01*
X21252222Y-20210759D01*
X21364509Y-20168944D01*
X21481942Y-20135825D01*
X21605085Y-20111141D01*
X21618090Y-20109071D01*
X21640794Y-20105964D01*
X21665083Y-20103580D01*
X21692656Y-20101839D01*
X21725213Y-20100661D01*
X21764452Y-20099967D01*
X21812072Y-20099678D01*
X21819227Y-20099666D01*
X21864218Y-20099707D01*
X21901085Y-20100053D01*
X21932016Y-20100845D01*
X21959201Y-20102220D01*
X21984827Y-20104320D01*
X22011084Y-20107283D01*
X22040161Y-20111249D01*
X22069359Y-20115609D01*
X22095568Y-20120399D01*
X22128676Y-20127630D01*
X22165768Y-20136574D01*
X22203926Y-20146506D01*
X22240234Y-20156700D01*
X22266095Y-20164589D01*
X22342041Y-20191020D01*
X22414757Y-20220975D01*
X22486400Y-20255523D01*
X22559129Y-20295735D01*
X22635103Y-20342683D01*
X22665654Y-20362766D01*
X22702162Y-20389172D01*
X22743040Y-20422265D01*
X22786555Y-20460412D01*
X22830977Y-20501984D01*
X22874572Y-20545349D01*
X22915610Y-20588877D01*
X22952358Y-20630936D01*
X22959183Y-20639202D01*
X23006984Y-20697734D01*
X22774583Y-20699076D01*
X22542181Y-20700417D01*
X22512879Y-20776436D01*
X22502275Y-20803803D01*
X22492453Y-20828887D01*
X22484242Y-20849594D01*
X22478468Y-20863831D01*
X22476727Y-20867927D01*
X22470914Y-20881663D01*
X22462526Y-20902279D01*
X22452257Y-20927992D01*
X22440800Y-20957022D01*
X22428847Y-20987588D01*
X22417091Y-21017909D01*
X22406226Y-21046203D01*
X22396943Y-21070689D01*
X22389936Y-21089587D01*
X22385898Y-21101115D01*
X22385448Y-21102587D01*
X22380980Y-21116035D01*
X22376819Y-21125161D01*
X22376383Y-21125795D01*
X22373877Y-21131357D01*
X22367931Y-21145725D01*
X22358861Y-21168102D01*
X22346987Y-21197690D01*
X22332625Y-21233689D01*
X22316094Y-21275301D01*
X22297713Y-21321729D01*
X22277799Y-21372174D01*
X22256671Y-21425837D01*
X22244871Y-21455866D01*
X22223106Y-21511269D01*
X22202315Y-21564144D01*
X22182826Y-21613662D01*
X22164968Y-21658990D01*
X22149069Y-21699297D01*
X22135456Y-21733750D01*
X22124459Y-21761518D01*
X22116405Y-21781769D01*
X22111623Y-21793671D01*
X22110552Y-21796252D01*
X22100799Y-21819259D01*
X22091719Y-21841717D01*
X22084166Y-21861399D01*
X22078996Y-21876075D01*
X22077063Y-21883518D01*
X22077063Y-21883527D01*
X22074817Y-21891799D01*
X22069850Y-21902850D01*
X22066124Y-21911143D01*
X22059247Y-21927596D01*
X22049659Y-21951094D01*
X22037796Y-21980523D01*
X22024098Y-22014770D01*
X22009001Y-22052720D01*
X21992944Y-22093259D01*
X21976366Y-22135273D01*
X21959704Y-22177648D01*
X21943397Y-22219271D01*
X21927882Y-22259026D01*
X21913598Y-22295800D01*
X21900982Y-22328479D01*
X21890473Y-22355949D01*
X21882510Y-22377096D01*
X21877529Y-22390806D01*
X21875958Y-22395896D01*
X21878614Y-22398295D01*
X21887262Y-22400058D01*
X21902918Y-22401255D01*
X21926601Y-22401957D01*
X21959329Y-22402232D01*
X21968764Y-22402242D01*
X22061570Y-22402242D01*
X22071714Y-22380323D01*
X22075317Y-22371823D01*
X22082338Y-22354592D01*
X22092431Y-22329503D01*
X22105251Y-22297430D01*
X22120453Y-22259247D01*
X22137693Y-22215826D01*
X22156624Y-22168040D01*
X22176901Y-22116763D01*
X22198180Y-22062869D01*
X22220115Y-22007229D01*
X22242362Y-21950718D01*
X22264574Y-21894209D01*
X22286407Y-21838576D01*
X22307515Y-21784690D01*
X22327554Y-21733426D01*
X22338254Y-21705998D01*
X22350860Y-21673767D01*
X22363004Y-21642911D01*
X22373898Y-21615418D01*
X22382754Y-21593277D01*
X22388783Y-21578478D01*
X22389373Y-21577064D01*
X22396046Y-21560855D01*
X22405319Y-21537864D01*
X22416715Y-21509310D01*
X22429758Y-21476412D01*
X22443973Y-21440387D01*
X22458883Y-21402453D01*
X22474011Y-21363830D01*
X22488883Y-21325736D01*
X22503022Y-21289388D01*
X22515952Y-21256006D01*
X22527196Y-21226807D01*
X22536279Y-21203010D01*
X22542725Y-21185833D01*
X22546058Y-21176494D01*
X22546415Y-21175184D01*
X22548690Y-21167709D01*
X22554183Y-21156201D01*
X22554363Y-21155868D01*
X22558343Y-21147247D01*
X22565479Y-21130451D01*
X22575182Y-21106917D01*
X22586867Y-21078081D01*
X22599945Y-21045380D01*
X22613012Y-21012333D01*
X22663713Y-20883399D01*
X23117049Y-20880715D01*
X23141182Y-20931052D01*
X23151056Y-20952218D01*
X23158975Y-20970277D01*
X23164000Y-20983017D01*
X23165306Y-20987836D01*
X23163229Y-20989453D01*
X23156504Y-20990795D01*
X23144389Y-20991883D01*
X23126136Y-20992738D01*
X23101003Y-20993382D01*
X23068244Y-20993836D01*
X23027115Y-20994122D01*
X22976870Y-20994261D01*
X22941441Y-20994282D01*
X22717583Y-20994282D01*
X22701875Y-21036831D01*
X22690500Y-21067025D01*
X22677327Y-21101034D01*
X22663872Y-21135004D01*
X22651654Y-21165082D01*
X22646434Y-21177575D01*
X22643338Y-21185133D01*
X22637621Y-21199396D01*
X22629166Y-21220659D01*
X22617856Y-21249220D01*
X22603574Y-21285373D01*
X22586204Y-21329415D01*
X22565628Y-21381641D01*
X22541731Y-21442348D01*
X22514395Y-21511830D01*
X22483504Y-21590384D01*
X22456300Y-21659582D01*
X22440290Y-21700299D01*
X22424958Y-21739268D01*
X22410843Y-21775116D01*
X22398488Y-21806473D01*
X22388432Y-21831965D01*
X22381215Y-21850221D01*
X22378070Y-21858140D01*
X22372363Y-21872558D01*
X22363715Y-21894543D01*
X22352930Y-21922048D01*
X22340809Y-21953029D01*
X22328155Y-21985439D01*
X22326512Y-21989653D01*
X22314498Y-22020384D01*
X22303514Y-22048331D01*
X22294195Y-22071889D01*
X22287178Y-22089451D01*
X22283098Y-22099411D01*
X22282607Y-22100536D01*
X22275213Y-22117558D01*
X22265672Y-22140670D01*
X22254517Y-22168468D01*
X22242281Y-22199552D01*
X22229495Y-22232519D01*
X22216694Y-22265966D01*
X22204408Y-22298491D01*
X22193172Y-22328692D01*
X22183517Y-22355166D01*
X22175976Y-22376512D01*
X22171082Y-22391328D01*
X22169367Y-22398209D01*
X22169436Y-22398497D01*
X22175599Y-22399707D01*
X22190346Y-22400611D01*
X22211951Y-22401161D01*
X22238688Y-22401312D01*
X22265204Y-22401075D01*
X22357140Y-22399663D01*
X22369485Y-22366140D01*
X22376982Y-22346370D01*
X22384233Y-22328210D01*
X22389094Y-22316886D01*
X22393536Y-22306513D01*
X22400805Y-22288704D01*
X22410022Y-22265646D01*
X22420307Y-22239529D01*
X22424330Y-22229210D01*
X22433768Y-22205023D01*
X22446184Y-22173335D01*
X22460755Y-22136237D01*
X22476661Y-22095818D01*
X22493079Y-22054169D01*
X22509189Y-22013379D01*
X22509394Y-22012861D01*
X22539782Y-21935979D01*
X22566580Y-21868136D01*
X22590000Y-21808786D01*
X22610256Y-21757381D01*
X22627560Y-21713373D01*
X22642126Y-21676215D01*
X22654167Y-21645359D01*
X22663896Y-21620257D01*
X22671527Y-21600361D01*
X22677271Y-21585125D01*
X22681343Y-21574000D01*
X22683956Y-21566440D01*
X22685323Y-21561895D01*
X22685664Y-21559974D01*
X22688345Y-21550873D01*
X22692460Y-21543400D01*
X22698123Y-21532663D01*
X22704946Y-21516701D01*
X22708424Y-21507440D01*
X22715844Y-21487572D01*
X22723802Y-21467711D01*
X22726657Y-21461024D01*
X22730904Y-21450851D01*
X22738320Y-21432542D01*
X22748319Y-21407566D01*
X22760315Y-21377392D01*
X22773722Y-21343492D01*
X22787954Y-21307335D01*
X22788866Y-21305013D01*
X22842010Y-21169633D01*
X22919847Y-21169360D01*
X22990707Y-21169221D01*
X23052830Y-21169325D01*
X23105983Y-21169669D01*
X23149937Y-21170249D01*
X23184460Y-21171062D01*
X23209322Y-21172103D01*
X23224292Y-21173368D01*
X23229025Y-21174572D01*
X23232277Y-21181563D01*
X23236740Y-21195799D01*
X23241705Y-21214389D01*
X23246463Y-21234443D01*
X23250305Y-21253072D01*
X23252521Y-21267385D01*
X23252797Y-21271424D01*
X23252973Y-21282961D01*
X23074027Y-21284317D01*
X22895082Y-21285673D01*
X22859494Y-21378506D01*
X22848156Y-21407937D01*
X22837845Y-21434427D01*
X22829214Y-21456321D01*
X22822917Y-21471964D01*
X22819606Y-21479699D01*
X22819535Y-21479840D01*
X22816322Y-21487226D01*
X22809962Y-21502779D01*
X22801025Y-21525043D01*
X22790081Y-21552563D01*
X22777700Y-21583885D01*
X22764453Y-21617554D01*
X22750910Y-21652114D01*
X22737641Y-21686110D01*
X22725216Y-21718088D01*
X22714207Y-21746593D01*
X22705182Y-21770169D01*
X22698712Y-21787362D01*
X22695520Y-21796252D01*
X22690386Y-21810402D01*
X22685961Y-21820457D01*
X22685011Y-21822057D01*
X22682366Y-21827872D01*
X22676405Y-21842218D01*
X22667531Y-21864071D01*
X22656149Y-21892402D01*
X22642662Y-21926187D01*
X22627475Y-21964398D01*
X22610990Y-22006010D01*
X22593612Y-22049995D01*
X22575745Y-22095328D01*
X22557791Y-22140982D01*
X22540156Y-22185931D01*
X22523242Y-22229148D01*
X22507454Y-22269607D01*
X22493195Y-22306282D01*
X22480870Y-22338146D01*
X22470881Y-22364173D01*
X22463633Y-22383336D01*
X22459530Y-22394609D01*
X22458740Y-22397221D01*
X22463563Y-22399277D01*
X22476728Y-22400821D01*
X22496271Y-22401869D01*
X22520233Y-22402435D01*
X22546653Y-22402534D01*
X22573569Y-22402181D01*
X22599021Y-22401390D01*
X22621048Y-22400177D01*
X22637688Y-22398557D01*
X22646981Y-22396543D01*
X22648101Y-22395795D01*
X22652268Y-22388104D01*
X22658687Y-22373830D01*
X22666244Y-22355759D01*
X22673826Y-22336675D01*
X22680321Y-22319360D01*
X22684615Y-22306599D01*
X22685723Y-22301673D01*
X22687939Y-22293804D01*
X22693269Y-22282056D01*
X22693339Y-22281922D01*
X22697740Y-22272358D01*
X22704814Y-22255722D01*
X22713788Y-22233959D01*
X22723889Y-22209013D01*
X22734342Y-22182829D01*
X22744376Y-22157350D01*
X22753215Y-22134521D01*
X22760088Y-22116287D01*
X22764220Y-22104591D01*
X22765040Y-22101675D01*
X22768201Y-22092219D01*
X22771572Y-22085064D01*
X22774791Y-22077753D01*
X22781217Y-22062127D01*
X22790328Y-22039489D01*
X22801604Y-22011144D01*
X22814525Y-21978393D01*
X22828570Y-21942540D01*
X22832322Y-21932922D01*
X22846544Y-21896487D01*
X22859728Y-21862815D01*
X22871362Y-21833208D01*
X22880932Y-21808970D01*
X22887924Y-21791403D01*
X22891827Y-21781808D01*
X22892272Y-21780780D01*
X22896424Y-21770962D01*
X22903350Y-21753859D01*
X22912459Y-21730992D01*
X22923158Y-21703880D01*
X22934857Y-21674045D01*
X22946963Y-21643007D01*
X22958886Y-21612287D01*
X22970034Y-21583405D01*
X22979815Y-21557882D01*
X22987638Y-21537239D01*
X22992911Y-21522995D01*
X22995043Y-21516672D01*
X22995061Y-21516534D01*
X22997081Y-21509979D01*
X23002303Y-21497467D01*
X23006593Y-21488100D01*
X23018170Y-21463602D01*
X23254191Y-21463602D01*
X23318238Y-21463713D01*
X23372048Y-21464046D01*
X23415695Y-21464604D01*
X23449253Y-21465387D01*
X23472798Y-21466398D01*
X23486402Y-21467638D01*
X23490212Y-21468922D01*
X23486003Y-21474830D01*
X23481186Y-21477278D01*
X23470409Y-21481453D01*
X23453091Y-21488785D01*
X23430942Y-21498493D01*
X23405672Y-21509792D01*
X23378990Y-21521901D01*
X23352606Y-21534036D01*
X23328229Y-21545416D01*
X23307568Y-21555256D01*
X23292333Y-21562774D01*
X23284233Y-21567188D01*
X23283402Y-21567851D01*
X23282077Y-21574472D01*
X23280555Y-21589408D01*
X23278999Y-21610666D01*
X23277568Y-21636253D01*
X23277132Y-21645740D01*
X23274267Y-21693119D01*
X23269677Y-21738201D01*
X23262907Y-21784199D01*
X23253504Y-21834324D01*
X23244532Y-21876191D01*
X23236801Y-21907493D01*
X23226450Y-21944592D01*
X23214336Y-21984809D01*
X23201313Y-22025463D01*
X23188239Y-22063876D01*
X23175969Y-22097366D01*
X23166285Y-22121166D01*
X23111893Y-22232742D01*
X23049447Y-22338375D01*
X22979350Y-22437693D01*
X22902004Y-22530328D01*
X22817809Y-22615908D01*
X22727169Y-22694063D01*
X22630484Y-22764423D01*
X22528156Y-22826617D01*
X22420588Y-22880276D01*
X22308180Y-22925029D01*
X22285793Y-22932666D01*
X22186357Y-22962244D01*
X22088925Y-22983950D01*
X21990472Y-22998296D01*
X21887972Y-23005790D01*
X21844803Y-23006990D01*
X21814527Y-23007369D01*
X21786322Y-23007537D01*
X21762487Y-23007495D01*
X21745322Y-23007242D01*
X21739288Y-23006996D01*
X21621463Y-22994740D01*
X21505334Y-22973573D01*
X21392113Y-22943843D01*
X21283011Y-22905900D01*
X21179240Y-22860093D01*
X21118807Y-22828287D01*
X21012138Y-22763029D01*
X20913453Y-22691444D01*
X20822322Y-22613168D01*
X20738311Y-22527837D01*
X20677936Y-22456759D01*
X20636557Y-22404821D01*
X20869075Y-22403479D01*
X21101594Y-22402137D01*
X21120783Y-22351905D01*
X21130562Y-22326576D01*
X21140656Y-22300880D01*
X21149472Y-22278851D01*
X21152798Y-22270729D01*
X21159097Y-22255250D01*
X21168165Y-22232589D01*
X21179036Y-22205182D01*
X21190742Y-22175461D01*
X21197868Y-22157267D01*
X21207402Y-22132924D01*
X21220046Y-22100731D01*
X21235112Y-22062431D01*
X21251915Y-22019766D01*
X21269768Y-21974478D01*
X21287987Y-21928309D01*
X21303480Y-21889085D01*
X21322078Y-21842008D01*
X21341445Y-21792963D01*
X21360786Y-21743964D01*
X21379307Y-21697021D01*
X21383167Y-21687233D01*
X21487789Y-21687233D01*
X21496939Y-21713377D01*
X21504890Y-21734386D01*
X21514354Y-21757110D01*
X21518252Y-21765806D01*
X21524921Y-21780757D01*
X21529339Y-21791695D01*
X21530415Y-21795360D01*
X21532217Y-21800671D01*
X21537246Y-21814126D01*
X21544938Y-21834279D01*
X21554726Y-21859681D01*
X21566045Y-21888886D01*
X21578330Y-21920446D01*
X21591016Y-21952913D01*
X21603536Y-21984839D01*
X21615326Y-22014779D01*
X21625821Y-22041283D01*
X21634454Y-22062904D01*
X21640661Y-22078196D01*
X21643574Y-22085064D01*
X21646644Y-22092497D01*
X21652900Y-22108168D01*
X21661798Y-22130697D01*
X21672796Y-22158705D01*
X21685351Y-22190814D01*
X21698402Y-22224313D01*
X21717373Y-22272801D01*
X21733035Y-22312155D01*
X21745625Y-22342928D01*
X21755380Y-22365671D01*
X21762538Y-22380938D01*
X21767338Y-22389280D01*
X21770015Y-22391250D01*
X21770155Y-22391138D01*
X21772453Y-22386039D01*
X21777967Y-22372658D01*
X21786164Y-22352321D01*
X21796513Y-22326353D01*
X21808482Y-22296082D01*
X21818060Y-22271713D01*
X21864182Y-22154078D01*
X21815419Y-22031896D01*
X21801382Y-21996670D01*
X21787953Y-21962864D01*
X21775817Y-21932212D01*
X21765660Y-21906450D01*
X21758167Y-21887312D01*
X21754870Y-21878770D01*
X21749359Y-21864472D01*
X21740924Y-21842803D01*
X21730082Y-21815079D01*
X21717351Y-21782614D01*
X21703251Y-21746724D01*
X21688299Y-21708722D01*
X21673014Y-21669925D01*
X21657913Y-21631646D01*
X21643516Y-21595201D01*
X21630341Y-21561905D01*
X21618906Y-21533072D01*
X21609729Y-21510018D01*
X21603329Y-21494057D01*
X21600357Y-21486810D01*
X21593750Y-21471258D01*
X21588407Y-21458445D01*
X21583109Y-21445552D01*
X21577172Y-21461024D01*
X21573551Y-21470308D01*
X21566781Y-21487531D01*
X21557511Y-21511043D01*
X21546394Y-21539192D01*
X21534079Y-21570328D01*
X21529512Y-21581864D01*
X21487789Y-21687233D01*
X21383167Y-21687233D01*
X21396215Y-21654149D01*
X21410715Y-21617358D01*
G37*
G36*
X23285536Y-20644545D02*
G01*
X23301544Y-20645332D01*
X23310768Y-20646805D01*
X23314382Y-20649034D01*
X23314545Y-20649904D01*
X23312550Y-20656773D01*
X23307266Y-20671315D01*
X23299393Y-20691691D01*
X23289635Y-20716065D01*
X23284473Y-20728678D01*
X23254716Y-20800881D01*
X23168748Y-20802296D01*
X23135762Y-20802670D01*
X23111905Y-20802497D01*
X23096001Y-20801707D01*
X23086875Y-20800228D01*
X23083352Y-20797989D01*
X23083213Y-20797138D01*
X23085220Y-20790254D01*
X23090459Y-20775678D01*
X23098236Y-20755255D01*
X23107854Y-20730833D01*
X23112868Y-20718364D01*
X23142090Y-20646161D01*
X23228476Y-20644747D01*
X23261571Y-20644373D01*
X23285536Y-20644545D01*
G37*
G36*
X23577235Y-20753176D02*
G01*
X23569784Y-20772216D01*
X23562856Y-20790547D01*
X23560041Y-20798303D01*
X23553663Y-20816354D01*
X23501308Y-20817823D01*
X23479490Y-20818078D01*
X23462126Y-20817600D01*
X23451379Y-20816491D01*
X23448953Y-20815386D01*
X23450727Y-20809124D01*
X23455471Y-20795704D01*
X23462314Y-20777544D01*
X23465714Y-20768808D01*
X23482476Y-20726137D01*
X23535263Y-20726118D01*
X23588051Y-20726100D01*
X23577235Y-20753176D01*
G37*
G36*
X23607342Y-21217113D02*
G01*
X23622030Y-21217620D01*
X23627808Y-21218270D01*
X23629902Y-21220507D01*
X23630114Y-21225678D01*
X23628098Y-21234833D01*
X23623504Y-21249018D01*
X23615986Y-21269284D01*
X23605196Y-21296679D01*
X23590785Y-21332251D01*
X23586634Y-21342404D01*
X23563406Y-21399135D01*
X23464921Y-21400536D01*
X23429283Y-21400898D01*
X23402843Y-21400792D01*
X23384488Y-21400159D01*
X23373111Y-21398940D01*
X23367601Y-21397078D01*
X23366639Y-21395379D01*
X23368573Y-21388667D01*
X23373811Y-21374092D01*
X23381721Y-21353323D01*
X23391667Y-21328029D01*
X23401451Y-21303724D01*
X23436059Y-21218628D01*
X23528719Y-21217215D01*
X23558904Y-21216892D01*
X23585705Y-21216864D01*
X23607342Y-21217113D01*
G37*
G36*
X21172756Y-23483466D02*
G01*
X21205883Y-23481428D01*
X21242712Y-23480419D01*
X21280337Y-23480408D01*
X21315852Y-23481365D01*
X21346350Y-23483260D01*
X21365379Y-23485461D01*
X21412071Y-23496606D01*
X21450763Y-23514240D01*
X21481595Y-23538518D01*
X21504707Y-23569594D01*
X21520238Y-23607623D01*
X21528328Y-23652759D01*
X21529263Y-23666352D01*
X21527585Y-23716799D01*
X21517575Y-23761645D01*
X21499395Y-23800585D01*
X21473206Y-23833311D01*
X21439172Y-23859516D01*
X21422518Y-23868533D01*
X21388587Y-23884983D01*
X21260943Y-23886599D01*
X21133298Y-23888215D01*
X21133298Y-23683085D01*
X21288019Y-23683085D01*
X21288189Y-23714146D01*
X21288663Y-23741612D01*
X21289386Y-23763839D01*
X21290304Y-23779182D01*
X21291361Y-23785998D01*
X21291457Y-23786134D01*
X21301303Y-23789430D01*
X21316222Y-23787208D01*
X21328590Y-23782191D01*
X21342856Y-23770782D01*
X21353054Y-23752868D01*
X21359495Y-23727474D01*
X21362492Y-23693625D01*
X21362801Y-23675342D01*
X21362552Y-23649834D01*
X21361563Y-23632270D01*
X21359466Y-23620286D01*
X21355895Y-23611518D01*
X21351985Y-23605571D01*
X21334864Y-23588144D01*
X21316638Y-23579725D01*
X21301844Y-23580004D01*
X21288019Y-23583474D01*
X21288019Y-23683085D01*
X21133298Y-23683085D01*
X21133298Y-23486801D01*
X21172756Y-23483466D01*
G37*
G36*
X23405010Y-20928144D02*
G01*
X23416034Y-20929199D01*
X23421551Y-20931249D01*
X23423158Y-20934455D01*
X23423166Y-20934779D01*
X23421288Y-20942930D01*
X23416333Y-20957921D01*
X23409323Y-20977127D01*
X23401279Y-20997920D01*
X23393222Y-21017677D01*
X23386174Y-21033770D01*
X23381155Y-21043573D01*
X23380470Y-21044567D01*
X23373838Y-21047696D01*
X23359105Y-21049753D01*
X23335456Y-21050817D01*
X23314230Y-21051013D01*
X23288139Y-21050876D01*
X23270685Y-21050296D01*
X23260192Y-21049027D01*
X23254983Y-21046819D01*
X23253384Y-21043424D01*
X23253363Y-21041988D01*
X23255442Y-21033696D01*
X23260758Y-21018333D01*
X23268443Y-20998292D01*
X23275341Y-20981389D01*
X23296928Y-20929815D01*
X23360047Y-20928367D01*
X23386881Y-20927921D01*
X23405010Y-20928144D01*
G37*
G36*
X20246050Y-21702124D02*
G01*
X20265868Y-21703144D01*
X20275922Y-21704790D01*
X20277176Y-21705833D01*
X20275420Y-21712932D01*
X20270797Y-21726735D01*
X20264273Y-21744368D01*
X20263677Y-21745914D01*
X20254942Y-21768606D01*
X20244709Y-21795382D01*
X20235108Y-21820666D01*
X20234589Y-21822039D01*
X20226472Y-21844302D01*
X20220254Y-21860815D01*
X20214326Y-21872425D01*
X20207079Y-21879979D01*
X20196902Y-21884325D01*
X20182186Y-21886311D01*
X20161321Y-21886783D01*
X20132697Y-21886589D01*
X20112129Y-21886506D01*
X20081665Y-21886363D01*
X20054868Y-21885966D01*
X20033398Y-21885362D01*
X20018916Y-21884596D01*
X20013081Y-21883717D01*
X20013078Y-21883714D01*
X20013988Y-21878263D01*
X20018202Y-21864793D01*
X20025179Y-21844854D01*
X20034376Y-21819995D01*
X20045094Y-21792171D01*
X20079901Y-21703420D01*
X20178539Y-21702019D01*
X20216821Y-21701744D01*
X20246050Y-21702124D01*
G37*
G36*
X20535473Y-22300446D02*
G01*
X20552731Y-22301588D01*
X20560457Y-22303394D01*
X20560831Y-22303993D01*
X20559032Y-22310922D01*
X20554256Y-22324749D01*
X20547432Y-22342825D01*
X20545359Y-22348090D01*
X20538136Y-22366904D01*
X20532714Y-22382231D01*
X20530024Y-22391400D01*
X20529887Y-22392467D01*
X20527838Y-22399673D01*
X20522491Y-22413126D01*
X20515704Y-22428381D01*
X20501521Y-22458865D01*
X20328055Y-22458973D01*
X20331511Y-22447369D01*
X20334647Y-22438455D01*
X20340833Y-22422107D01*
X20349250Y-22400450D01*
X20359078Y-22375611D01*
X20361834Y-22368719D01*
X20388699Y-22301673D01*
X20474765Y-22300259D01*
X20509284Y-22299994D01*
X20535473Y-22300446D01*
G37*
G36*
X20121154Y-22005098D02*
G01*
X20140475Y-22005933D01*
X20154595Y-22007556D01*
X20160938Y-22009962D01*
X20160592Y-22017016D01*
X20156700Y-22031490D01*
X20149947Y-22051400D01*
X20141023Y-22074761D01*
X20130614Y-22099589D01*
X20127325Y-22106983D01*
X20117432Y-22128902D01*
X19987669Y-22128902D01*
X19991256Y-22117298D01*
X19995888Y-22104086D01*
X20002950Y-22085931D01*
X20011352Y-22065408D01*
X20020004Y-22045093D01*
X20027816Y-22027563D01*
X20033699Y-22015394D01*
X20035978Y-22011572D01*
X20042972Y-22008966D01*
X20057542Y-22006983D01*
X20077132Y-22005656D01*
X20099188Y-22005016D01*
X20121154Y-22005098D01*
G37*
G36*
X21593960Y-23654837D02*
G01*
X21607852Y-23612189D01*
X21621786Y-23570406D01*
X21625291Y-23560069D01*
X21651613Y-23482709D01*
X21736709Y-23481158D01*
X21767065Y-23480812D01*
X21795395Y-23480866D01*
X21819390Y-23481290D01*
X21836742Y-23482050D01*
X21842917Y-23482642D01*
X21864029Y-23485678D01*
X21890623Y-23562761D01*
X21899710Y-23589412D01*
X21907461Y-23612745D01*
X21913298Y-23630971D01*
X21916645Y-23642303D01*
X21917217Y-23645029D01*
X21918941Y-23652213D01*
X21923450Y-23665959D01*
X21929475Y-23682502D01*
X21937225Y-23703857D01*
X21946062Y-23729725D01*
X21955400Y-23758204D01*
X21964649Y-23787392D01*
X21973222Y-23815385D01*
X21980532Y-23840282D01*
X21985990Y-23860180D01*
X21989009Y-23873176D01*
X21989420Y-23876513D01*
X21989077Y-23880590D01*
X21987071Y-23883517D01*
X21981936Y-23885483D01*
X21972203Y-23886680D01*
X21956407Y-23887298D01*
X21933080Y-23887528D01*
X21904505Y-23887562D01*
X21871861Y-23887536D01*
X21848015Y-23887070D01*
X21831449Y-23885584D01*
X21820647Y-23882496D01*
X21814092Y-23877226D01*
X21810267Y-23869193D01*
X21807656Y-23857814D01*
X21806184Y-23849896D01*
X21802540Y-23830472D01*
X21753063Y-23831941D01*
X21703587Y-23833409D01*
X21700414Y-23848881D01*
X21696634Y-23864065D01*
X21691430Y-23875286D01*
X21683327Y-23883137D01*
X21670852Y-23888212D01*
X21652530Y-23891105D01*
X21626884Y-23892410D01*
X21592442Y-23892719D01*
X21591497Y-23892719D01*
X21564327Y-23892475D01*
X21545867Y-23891617D01*
X21534524Y-23889959D01*
X21528702Y-23887313D01*
X21527190Y-23885158D01*
X21527888Y-23878195D01*
X21531486Y-23862627D01*
X21537627Y-23839640D01*
X21545952Y-23810417D01*
X21556105Y-23776141D01*
X21567729Y-23737997D01*
X21575026Y-23714605D01*
X21723789Y-23714605D01*
X21724022Y-23717703D01*
X21729877Y-23719932D01*
X21742127Y-23721549D01*
X21757432Y-23722446D01*
X21772452Y-23722516D01*
X21783849Y-23721650D01*
X21788283Y-23719780D01*
X21787152Y-23714022D01*
X21784052Y-23700155D01*
X21779422Y-23680099D01*
X21773702Y-23655773D01*
X21772061Y-23648866D01*
X21765132Y-23620821D01*
X21759839Y-23602075D01*
X21755888Y-23591798D01*
X21752984Y-23589156D01*
X21751569Y-23591013D01*
X21747668Y-23602733D01*
X21742871Y-23620445D01*
X21737703Y-23641741D01*
X21732687Y-23664213D01*
X21728347Y-23685453D01*
X21725206Y-23703053D01*
X21723789Y-23714605D01*
X21575026Y-23714605D01*
X21580466Y-23697168D01*
X21593960Y-23654837D01*
G37*
G36*
X21094636Y-23481842D02*
G01*
X21107823Y-23485466D01*
X21113200Y-23492620D01*
X21111605Y-23504436D01*
X21103873Y-23522048D01*
X21090838Y-23546590D01*
X21090520Y-23547176D01*
X21072760Y-23579869D01*
X21058339Y-23606356D01*
X21045687Y-23629505D01*
X21033236Y-23652183D01*
X21019416Y-23677256D01*
X21010811Y-23692840D01*
X20983735Y-23741854D01*
X20983735Y-23811097D01*
X20983280Y-23844705D01*
X20981899Y-23868368D01*
X20979563Y-23882419D01*
X20977546Y-23886530D01*
X20970026Y-23889341D01*
X20953654Y-23891284D01*
X20927938Y-23892397D01*
X20895827Y-23892719D01*
X20865901Y-23892586D01*
X20844568Y-23892057D01*
X20830107Y-23890940D01*
X20820800Y-23889043D01*
X20814926Y-23886171D01*
X20811762Y-23883288D01*
X20808011Y-23877293D01*
X20805505Y-23867892D01*
X20804022Y-23853217D01*
X20803343Y-23831400D01*
X20803227Y-23811054D01*
X20803227Y-23748253D01*
X20769442Y-23675935D01*
X20756004Y-23648103D01*
X20742208Y-23621137D01*
X20729412Y-23597589D01*
X20718976Y-23580013D01*
X20716112Y-23575716D01*
X20702372Y-23553936D01*
X20691238Y-23532174D01*
X20683693Y-23512773D01*
X20680718Y-23498074D01*
X20681378Y-23492860D01*
X20684089Y-23490021D01*
X20690625Y-23487966D01*
X20702358Y-23486581D01*
X20720658Y-23485750D01*
X20746894Y-23485360D01*
X20771971Y-23485288D01*
X20859657Y-23485288D01*
X20878521Y-23545887D01*
X20886077Y-23569535D01*
X20892851Y-23589590D01*
X20898119Y-23603985D01*
X20901157Y-23610651D01*
X20901220Y-23610726D01*
X20904540Y-23608230D01*
X20910081Y-23597911D01*
X20916844Y-23581745D01*
X20919475Y-23574624D01*
X20927512Y-23552143D01*
X20935386Y-23530134D01*
X20941544Y-23512936D01*
X20942135Y-23511287D01*
X20946530Y-23500393D01*
X20951790Y-23492500D01*
X20959534Y-23487111D01*
X20971380Y-23483725D01*
X20988949Y-23481844D01*
X21013860Y-23480968D01*
X21041499Y-23480644D01*
X21072807Y-23480612D01*
X21094636Y-23481842D01*
G37*
G36*
X20377374Y-23445024D02*
G01*
X20397687Y-23445723D01*
X20410960Y-23447021D01*
X20418278Y-23448969D01*
X20420187Y-23450371D01*
X20423646Y-23457156D01*
X20430006Y-23471904D01*
X20438572Y-23492909D01*
X20448644Y-23518467D01*
X20457689Y-23542019D01*
X20468341Y-23569925D01*
X20477865Y-23594585D01*
X20485609Y-23614332D01*
X20490921Y-23627502D01*
X20493033Y-23632272D01*
X20496674Y-23642066D01*
X20497121Y-23644349D01*
X20498713Y-23651782D01*
X20500157Y-23651532D01*
X20501501Y-23643098D01*
X20502794Y-23625974D01*
X20504084Y-23599657D01*
X20505418Y-23563645D01*
X20505733Y-23554050D01*
X20507180Y-23515686D01*
X20508784Y-23486791D01*
X20510623Y-23466521D01*
X20512775Y-23454030D01*
X20515319Y-23448472D01*
X20515575Y-23448281D01*
X20522944Y-23446802D01*
X20538501Y-23445745D01*
X20560123Y-23445190D01*
X20585691Y-23445221D01*
X20591775Y-23445317D01*
X20661400Y-23446607D01*
X20662744Y-23673193D01*
X20663020Y-23729938D01*
X20663106Y-23777132D01*
X20662983Y-23815537D01*
X20662635Y-23845915D01*
X20662045Y-23869028D01*
X20661196Y-23885639D01*
X20660070Y-23896508D01*
X20658651Y-23902400D01*
X20657586Y-23903906D01*
X20650613Y-23905184D01*
X20635020Y-23906309D01*
X20612500Y-23907215D01*
X20584748Y-23907836D01*
X20553457Y-23908107D01*
X20549787Y-23908112D01*
X20448489Y-23908191D01*
X20440877Y-23888851D01*
X20436527Y-23877469D01*
X20429429Y-23858527D01*
X20420374Y-23834150D01*
X20410155Y-23806468D01*
X20403473Y-23788282D01*
X20393329Y-23761404D01*
X20384057Y-23738279D01*
X20376341Y-23720503D01*
X20370864Y-23709667D01*
X20368638Y-23707054D01*
X20366874Y-23712115D01*
X20365958Y-23726978D01*
X20365895Y-23751166D01*
X20366694Y-23784201D01*
X20367326Y-23801573D01*
X20368573Y-23835389D01*
X20369211Y-23860410D01*
X20369168Y-23878141D01*
X20368373Y-23890087D01*
X20366754Y-23897753D01*
X20364240Y-23902645D01*
X20362428Y-23904720D01*
X20357337Y-23908276D01*
X20349248Y-23910728D01*
X20336418Y-23912263D01*
X20317105Y-23913071D01*
X20289569Y-23913342D01*
X20282997Y-23913348D01*
X20249125Y-23912913D01*
X20225152Y-23911587D01*
X20210701Y-23909339D01*
X20206005Y-23907160D01*
X20204339Y-23902677D01*
X20202982Y-23892423D01*
X20201915Y-23875707D01*
X20201118Y-23851840D01*
X20200574Y-23820131D01*
X20200262Y-23779893D01*
X20200164Y-23730434D01*
X20200198Y-23696997D01*
X20200370Y-23651130D01*
X20200697Y-23607681D01*
X20201157Y-23567921D01*
X20201729Y-23533121D01*
X20202390Y-23504551D01*
X20203120Y-23483482D01*
X20203896Y-23471186D01*
X20204066Y-23469815D01*
X20207552Y-23446607D01*
X20311270Y-23445214D01*
X20348931Y-23444871D01*
X20377374Y-23445024D01*
G37*
G36*
X22864986Y-23478401D02*
G01*
X22894510Y-23481256D01*
X22918310Y-23486903D01*
X22938634Y-23496038D01*
X22957730Y-23509356D01*
X22972687Y-23522592D01*
X22987769Y-23537901D01*
X22997242Y-23551306D01*
X23003668Y-23567201D01*
X23007941Y-23583044D01*
X23012090Y-23602636D01*
X23014577Y-23619756D01*
X23014873Y-23630460D01*
X23013156Y-23642587D01*
X22853278Y-23642587D01*
X22853278Y-23625410D01*
X22849631Y-23608751D01*
X22840305Y-23599088D01*
X22827719Y-23597031D01*
X22814293Y-23603190D01*
X22805288Y-23613321D01*
X22801316Y-23621638D01*
X22798737Y-23633459D01*
X22797314Y-23650820D01*
X22796809Y-23675761D01*
X22796804Y-23686125D01*
X22797474Y-23718033D01*
X22799551Y-23740956D01*
X22803438Y-23756176D01*
X22809537Y-23764974D01*
X22818250Y-23768631D01*
X22822805Y-23768942D01*
X22831878Y-23766944D01*
X22839113Y-23759402D01*
X22846073Y-23745734D01*
X22856339Y-23722526D01*
X22933277Y-23722526D01*
X22965655Y-23722682D01*
X22989016Y-23723592D01*
X23004653Y-23725924D01*
X23013863Y-23730344D01*
X23017942Y-23737518D01*
X23018186Y-23748112D01*
X23015890Y-23762793D01*
X23015514Y-23764815D01*
X23008450Y-23793122D01*
X22997941Y-23815530D01*
X22981754Y-23836023D01*
X22968106Y-23849314D01*
X22939204Y-23871322D01*
X22907536Y-23886259D01*
X22871072Y-23894803D01*
X22827784Y-23897633D01*
X22823515Y-23897630D01*
X22795230Y-23896483D01*
X22770624Y-23893602D01*
X22753826Y-23889642D01*
X22712525Y-23870435D01*
X22678734Y-23844229D01*
X22652061Y-23810644D01*
X22633025Y-23771730D01*
X22627804Y-23756421D01*
X22624352Y-23741420D01*
X22622329Y-23723963D01*
X22621393Y-23701291D01*
X22621197Y-23676110D01*
X22621346Y-23648689D01*
X22622066Y-23628997D01*
X22623765Y-23614448D01*
X22626849Y-23602457D01*
X22631726Y-23590440D01*
X22636167Y-23581154D01*
X22658440Y-23545396D01*
X22686411Y-23516098D01*
X22718467Y-23494839D01*
X22729501Y-23489922D01*
X22744056Y-23484703D01*
X22758068Y-23481195D01*
X22774165Y-23479070D01*
X22794974Y-23477998D01*
X22823120Y-23477651D01*
X22827491Y-23477642D01*
X22864986Y-23478401D01*
G37*
%TD*%
M02*
